
<svg xmlns="http://www.w3.org/2000/svg" version="1.1" xmlns:xlink="http://www.w3.org/1999/xlink" preserveAspectRatio="none" x="0px" y="0px" width="700px" height="130px" viewBox="0 0 700 130">
<defs>
<g id="Layer2_0_FILL">
<path fill="#000000" stroke="none" d="
M 135.55 104.95
Q 134.85 104.65 133.9 104.65 132.95 104.65 132.15 104.95 131.35 105.3 130.8 105.85 130.2 106.45 129.9 107.25 129.6 108.1 129.6 109.05 129.6 110 129.9 110.85 130.2 111.65 130.7 112.25 131.25 112.8 132 113.1 132.75 113.45 133.7 113.45 134.75 113.45 135.5 113.1 136.25 112.75 136.8 112.15
L 136.35 111.65
Q 136.25 111.55 136.15 111.55 136.05 111.55 135.95 111.65 135.75 111.85 135.5 112 135.3 112.15 135 112.25 134.75 112.35 134.45 112.4 134.15 112.45 133.75 112.45 133.15 112.45 132.6 112.2 132.05 112 131.65 111.55 131.25 111.1 131 110.5 130.8 109.85 130.8 109.05 130.8 108.25 131 107.65 131.25 107 131.65 106.55 132.05 106.15 132.65 105.9 133.2 105.65 133.9 105.65 134.3 105.65 134.6 105.7 134.85 105.75 135.1 105.85 135.3 105.95 135.5 106.05 135.65 106.15 135.75 106.2 135.9 106.3 135.95 106.35 136.05 106.4 136.15 106.4 136.25 106.4 136.3 106.4 136.35 106.35 136.4 106.3
L 136.75 105.75
Q 136.25 105.25 135.55 104.95
M 143.75 104.95
Q 143 104.65 142.05 104.65 141.1 104.65 140.3 104.95 139.55 105.3 138.95 105.9 138.4 106.45 138.1 107.25 137.8 108.1 137.8 109.05 137.8 110 138.1 110.8 138.4 111.65 138.95 112.2 139.55 112.8 140.3 113.1 141.1 113.45 142.05 113.45 143 113.45 143.75 113.1 144.55 112.8 145.1 112.2 145.65 111.65 145.95 110.8 146.3 110 146.3 109.05 146.3 108.1 145.95 107.25 145.65 106.45 145.1 105.9 144.55 105.3 143.75 104.95
M 145.1 109.05
Q 145.1 109.85 144.85 110.45 144.65 111.1 144.25 111.55 143.85 111.95 143.3 112.2 142.75 112.45 142.05 112.45 141.35 112.45 140.8 112.2 140.2 111.95 139.8 111.55 139.4 111.1 139.2 110.45 139 109.85 139 109.05 139 108.25 139.2 107.65 139.4 107 139.8 106.55 140.2 106.15 140.8 105.9 141.35 105.65 142.05 105.65 142.75 105.65 143.3 105.9 143.85 106.15 144.25 106.55 144.65 107 144.85 107.65 145.1 108.25 145.1 109.05
M 149.05 104.75
L 147.9 104.75 147.9 113.35 152.8 113.35 152.8 112.35 149.05 112.35 149.05 104.75
M 159.5 104.95
Q 158.75 104.65 157.8 104.65 156.85 104.65 156.05 104.95 155.3 105.3 154.7 105.9 154.15 106.45 153.85 107.25 153.55 108.1 153.55 109.05 153.55 110 153.85 110.8 154.15 111.65 154.7 112.2 155.3 112.8 156.05 113.1 156.85 113.45 157.8 113.45 158.75 113.45 159.5 113.1 160.3 112.8 160.85 112.2 161.4 111.65 161.7 110.8 162.05 110 162.05 109.05 162.05 108.1 161.7 107.25 161.4 106.45 160.85 105.9 160.3 105.3 159.5 104.95
M 154.95 110.45
Q 154.75 109.85 154.75 109.05 154.75 108.25 154.95 107.65 155.15 107 155.55 106.55 155.95 106.15 156.55 105.9 157.1 105.65 157.8 105.65 158.5 105.65 159.05 105.9 159.6 106.15 160 106.55 160.4 107 160.6 107.65 160.85 108.25 160.85 109.05 160.85 109.85 160.6 110.45 160.4 111.1 160 111.55 159.6 111.95 159.05 112.2 158.5 112.45 157.8 112.45 157.1 112.45 156.55 112.2 155.95 111.95 155.55 111.55 155.15 111.1 154.95 110.45
M 166.2 104.75
L 163.75 104.75 163.75 113.35 164.9 113.35 164.9 109.75 165.8 109.75
Q 166.05 109.75 166.15 109.8 166.3 109.9 166.4 110.05
L 168.6 113.1
Q 168.75 113.35 169.1 113.35
L 170.1 113.35 167.6 109.95
Q 167.45 109.7 167.25 109.55 167.75 109.45 168.1 109.25 168.5 109 168.8 108.7 169.05 108.4 169.2 108 169.35 107.6 169.35 107.15 169.35 106.6 169.15 106.15 168.95 105.7 168.6 105.4 168.2 105.1 167.6 104.9 167 104.75 166.2 104.75
M 164.9 108.9
L 164.9 105.65 166.2 105.65
Q 167.2 105.65 167.7 106.05 168.2 106.45 168.2 107.2 168.2 107.6 168.1 107.9 167.95 108.2 167.7 108.45 167.4 108.65 167.05 108.8 166.65 108.9 166.15 108.9
L 164.9 108.9 Z"/>

<path fill="#333333" stroke="none" d="
M 38.35 104.75
L 33.05 104.75 33.05 113.35 34.2 113.35 34.2 109.65 37.75 109.65 37.75 108.7 34.2 108.7 34.2 105.7 38.35 105.7 38.35 104.75
M 43.5 104.75
L 42.3 104.75 38.85 113.35 39.75 113.35
Q 39.9 113.35 40 113.25 40.1 113.2 40.15 113.05
L 40.95 111 44.8 111 45.6 113.05
Q 45.65 113.2 45.75 113.25 45.85 113.35 46 113.35
L 46.9 113.35 43.5 104.75
M 44.5 110.15
L 41.3 110.15 42.65 106.65
Q 42.7 106.5 42.75 106.3 42.8 106.1 42.9 105.85 43 106.35 43.15 106.65
L 44.5 110.15
M 52.1 104.9
Q 51.55 104.75 50.75 104.75
L 48 104.75 48 113.35 51.05 113.35
Q 51.75 113.35 52.3 113.15 52.9 113 53.25 112.65 53.65 112.35 53.85 111.9 54.05 111.45 54.05 110.9 54.05 110.1 53.6 109.6 53.1 109.1 52.15 108.95 52.55 108.8 52.85 108.6 53.15 108.4 53.35 108.15 53.55 107.9 53.65 107.6 53.75 107.3 53.75 107 53.75 106.5 53.6 106.05 53.4 105.65 53.05 105.35 52.65 105.05 52.1 104.9
M 50.75 105.65
Q 51.7 105.65 52.15 106 52.6 106.4 52.6 107.15 52.6 107.45 52.5 107.75 52.4 108 52.15 108.2 51.9 108.4 51.55 108.5 51.2 108.6 50.7 108.6
L 49.15 108.6 49.15 105.65 50.75 105.65
M 51 109.45
Q 51.95 109.45 52.45 109.8 52.9 110.2 52.9 110.85 52.9 111.2 52.8 111.5 52.7 111.8 52.45 112 52.25 112.2 51.85 112.3 51.5 112.4 51 112.4
L 49.15 112.4 49.15 109.45 51 109.45
M 60.9 108.7
Q 61.15 108.4 61.3 108 61.45 107.6 61.45 107.15 61.45 106.6 61.25 106.15 61.05 105.7 60.7 105.4 60.3 105.1 59.7 104.9 59.1 104.75 58.3 104.75
L 55.85 104.75 55.85 113.35 57 113.35 57 109.75 57.9 109.75
Q 58.15 109.75 58.25 109.8 58.4 109.9 58.5 110.05
L 60.7 113.1
Q 60.85 113.35 61.2 113.35
L 62.2 113.35 59.7 109.95
Q 59.55 109.7 59.35 109.55 59.85 109.45 60.2 109.25 60.6 109 60.9 108.7
M 58.3 105.65
Q 59.3 105.65 59.8 106.05 60.3 106.45 60.3 107.2 60.3 107.6 60.2 107.9 60.05 108.2 59.8 108.45 59.5 108.65 59.15 108.8 58.75 108.9 58.25 108.9
L 57 108.9 57 105.65 58.3 105.65
M 64.9 104.75
L 63.7 104.75 63.7 113.35 64.9 113.35 64.9 104.75
M 72.65 104.95
Q 71.95 104.65 71 104.65 70.05 104.65 69.25 104.95 68.45 105.3 67.9 105.85 67.3 106.45 67 107.25 66.7 108.1 66.7 109.05 66.7 110 67 110.85 67.3 111.65 67.8 112.25 68.35 112.8 69.1 113.1 69.85 113.45 70.8 113.45 71.85 113.45 72.6 113.1 73.35 112.75 73.9 112.15
L 73.45 111.65
Q 73.35 111.55 73.25 111.55 73.15 111.55 73.05 111.65 72.85 111.85 72.6 112 72.4 112.15 72.1 112.25 71.85 112.35 71.55 112.4 71.25 112.45 70.85 112.45 70.25 112.45 69.7 112.2 69.15 112 68.75 111.55 68.35 111.1 68.1 110.5 67.9 109.85 67.9 109.05 67.9 108.25 68.1 107.65 68.35 107 68.75 106.55 69.15 106.15 69.75 105.9 70.3 105.65 71 105.65 71.4 105.65 71.7 105.7 71.95 105.75 72.2 105.85 72.4 105.95 72.6 106.05 72.75 106.15 72.85 106.2 73 106.3 73.05 106.35 73.15 106.4 73.25 106.4 73.35 106.4 73.4 106.4 73.45 106.35 73.5 106.3
L 73.85 105.75
Q 73.35 105.25 72.65 104.95
M 257.35 108.55
L 257.35 105.7 261.5 105.7 261.5 104.75 256.2 104.75 256.2 113.35 261.5 113.35 261.5 112.4 257.35 112.4 257.35 109.45 260.7 109.45 260.7 108.55 257.35 108.55
M 253.95 111.35
Q 254.2 110.7 254.2 110
L 254.2 104.75 253.05 104.75 253.05 110
Q 253.05 110.5 252.9 110.95 252.75 111.4 252.45 111.75 252.15 112.05 251.75 112.25 251.3 112.4 250.8 112.4 250.25 112.4 249.85 112.25 249.4 112.05 249.1 111.75 248.85 111.4 248.65 110.95 248.5 110.5 248.5 109.95
L 248.5 104.75 247.35 104.75 247.35 110
Q 247.35 110.7 247.6 111.35 247.85 112 248.3 112.45 248.7 112.9 249.35 113.2 250 113.45 250.8 113.45 251.6 113.45 252.2 113.2 252.85 112.9 253.3 112.45 253.75 112 253.95 111.35
M 266.2 105.75
L 269 105.75 269 104.75 262.25 104.75 262.25 105.75 265.05 105.75 265.05 113.35 266.2 113.35 266.2 105.75
M 276.1 105.75
L 276.1 104.75 269.35 104.75 269.35 105.75 272.15 105.75 272.15 113.35 273.3 113.35 273.3 105.75 276.1 105.75
M 282.65 104.75
L 277.35 104.75 277.35 113.35 282.65 113.35 282.65 112.4 278.5 112.4 278.5 109.45 281.85 109.45 281.85 108.55 278.5 108.55 278.5 105.7 282.65 105.7 282.65 104.75
M 216.3 104.9
Q 215.7 104.65 215 104.65 214.35 104.65 213.85 104.85 213.35 105.05 213 105.4 212.65 105.7 212.5 106.15 212.3 106.55 212.3 107 212.3 107.6 212.5 107.95 212.65 108.35 212.95 108.6 213.25 108.85 213.6 109.05 214 109.2 214.4 109.3 214.75 109.45 215.15 109.55 215.5 109.7 215.8 109.85 216.1 110 216.25 110.25 216.45 110.5 216.45 110.9 216.45 111.25 216.3 111.55 216.2 111.85 215.95 112.05 215.75 112.25 215.4 112.35 215.1 112.5 214.7 112.5 214.2 112.5 213.85 112.35 213.5 112.2 213.25 112.05 213 111.9 212.85 111.75 212.7 111.6 212.55 111.6 212.45 111.6 212.4 111.65 212.35 111.7 212.3 111.75
L 211.95 112.3
Q 212.45 112.85 213.1 113.15 213.8 113.45 214.65 113.45 215.35 113.45 215.85 113.25 216.4 113 216.75 112.65 217.15 112.3 217.35 111.8 217.5 111.3 217.5 110.75 217.5 110.2 217.35 109.85 217.15 109.45 216.9 109.2 216.6 108.95 216.2 108.8 215.85 108.65 215.45 108.5 215.05 108.35 214.7 108.25 214.35 108.1 214.05 107.95 213.75 107.8 213.55 107.55 213.4 107.3 213.4 106.95 213.4 106.65 213.5 106.45 213.6 106.2 213.8 106 214 105.85 214.3 105.7 214.6 105.6 215 105.6 215.4 105.6 215.7 105.7 216 105.8 216.2 105.95 216.4 106.05 216.55 106.15 216.65 106.25 216.8 106.25 216.85 106.25 216.95 106.25 217 106.2 217.05 106.1
L 217.35 105.55
Q 216.9 105.1 216.3 104.9
M 220.35 104.75
L 219.15 104.75 219.15 113.35 220.35 113.35 220.35 104.75
M 227.55 113.35
L 227.55 112.35 223.8 112.35 223.8 104.75 222.65 104.75 222.65 113.35 227.55 113.35
M 235.75 104.75
L 234.6 104.75 234.6 108.6 229.95 108.6 229.95 104.75 228.8 104.75 228.8 113.35 229.95 113.35 229.95 109.45 234.6 109.45 234.6 113.35 235.75 113.35 235.75 104.75
M 241.6 104.65
Q 240.65 104.65 239.85 104.95 239.1 105.3 238.5 105.9 237.95 106.45 237.65 107.25 237.35 108.1 237.35 109.05 237.35 110 237.65 110.8 237.95 111.65 238.5 112.2 239.1 112.8 239.85 113.1 240.65 113.45 241.6 113.45 242.55 113.45 243.3 113.1 244.1 112.8 244.65 112.2 245.2 111.65 245.5 110.8 245.85 110 245.85 109.05 245.85 108.1 245.5 107.25 245.2 106.45 244.65 105.9 244.1 105.3 243.3 104.95 242.55 104.65 241.6 104.65
M 238.75 110.45
Q 238.55 109.85 238.55 109.05 238.55 108.25 238.75 107.65 238.95 107 239.35 106.55 239.75 106.15 240.35 105.9 240.9 105.65 241.6 105.65 242.3 105.65 242.85 105.9 243.4 106.15 243.8 106.55 244.2 107 244.4 107.65 244.65 108.25 244.65 109.05 244.65 109.85 244.4 110.45 244.2 111.1 243.8 111.55 243.4 111.95 242.85 112.2 242.3 112.45 241.6 112.45 240.9 112.45 240.35 112.2 239.75 111.95 239.35 111.55 238.95 111.1 238.75 110.45
M 450.65 104.75
L 449.5 104.75 449.5 113.35 454.4 113.35 454.4 112.35 450.65 112.35 450.65 104.75
M 446.85 104.9
Q 446.25 104.65 445.55 104.65 444.9 104.65 444.4 104.85 443.9 105.05 443.55 105.4 443.2 105.7 443.05 106.15 442.85 106.55 442.85 107 442.85 107.6 443.05 107.95 443.2 108.35 443.5 108.6 443.8 108.85 444.15 109.05 444.55 109.2 444.95 109.3 445.3 109.45 445.7 109.55 446.05 109.7 446.35 109.85 446.65 110 446.8 110.25 447 110.5 447 110.9 447 111.25 446.85 111.55 446.75 111.85 446.5 112.05 446.3 112.25 445.95 112.35 445.65 112.5 445.25 112.5 444.75 112.5 444.4 112.35 444.05 112.2 443.8 112.05 443.55 111.9 443.4 111.75 443.25 111.6 443.1 111.6 443 111.6 442.95 111.65 442.9 111.7 442.85 111.75
L 442.5 112.3
Q 443 112.85 443.65 113.15 444.35 113.45 445.2 113.45 445.9 113.45 446.4 113.25 446.95 113 447.3 112.65 447.7 112.3 447.9 111.8 448.05 111.3 448.05 110.75 448.05 110.2 447.9 109.85 447.7 109.45 447.45 109.2 447.15 108.95 446.75 108.8 446.4 108.65 446 108.5 445.6 108.35 445.25 108.25 444.9 108.1 444.6 107.95 444.3 107.8 444.1 107.55 443.95 107.3 443.95 106.95 443.95 106.65 444.05 106.45 444.15 106.2 444.35 106 444.55 105.85 444.85 105.7 445.15 105.6 445.55 105.6 445.95 105.6 446.25 105.7 446.55 105.8 446.75 105.95 446.95 106.05 447.1 106.15 447.2 106.25 447.35 106.25 447.4 106.25 447.5 106.25 447.55 106.2 447.6 106.1
L 447.9 105.55
Q 447.45 105.1 446.85 104.9
M 460.95 104.75
L 455.65 104.75 455.65 113.35 460.95 113.35 460.95 112.4 456.8 112.4 456.8 109.45 460.15 109.45 460.15 108.55 456.8 108.55 456.8 105.7 460.95 105.7 460.95 104.75
M 467.1 109.45
L 467.1 108.55 463.75 108.55 463.75 105.7 467.9 105.7 467.9 104.75 462.6 104.75 462.6 113.35 467.9 113.35 467.9 112.4 463.75 112.4 463.75 109.45 467.1 109.45
M 475.4 104.85
Q 475.3 104.9 475.25 105
L 472.85 111.1
Q 472.75 111.3 472.7 111.55 472.65 111.8 472.6 112.05 472.55 111.8 472.45 111.55 472.4 111.3 472.3 111.1
L 469.9 105
Q 469.8 104.9 469.75 104.8 469.65 104.75 469.5 104.75
L 468.55 104.75 472.05 113.35 473.1 113.35 476.6 104.75 475.65 104.75
Q 475.5 104.75 475.4 104.85
M 478.85 108.55
L 478.85 105.7 483 105.7 483 104.75 477.7 104.75 477.7 113.35 483 113.35 483 112.4 478.85 112.4 478.85 109.45 482.2 109.45 482.2 108.55 478.85 108.55
M 339.4 105.7
L 343.55 105.7 343.55 104.75 338.25 104.75 338.25 113.35 343.55 113.35 343.55 112.4 339.4 112.4 339.4 109.45 342.75 109.45 342.75 108.55 339.4 108.55 339.4 105.7
M 336.15 104.75
L 335.15 104.75 335.15 110.85
Q 335.15 111 335.15 111.1 335.15 111.25 335.2 111.45
L 330.2 104.95
Q 330.1 104.8 330.05 104.8 329.95 104.75 329.8 104.75
L 329.2 104.75 329.2 113.35 330.2 113.35 330.2 107.25
Q 330.2 107.1 330.2 106.95 330.2 106.8 330.2 106.65
L 335.15 113.15
Q 335.25 113.25 335.35 113.3 335.45 113.35 335.6 113.35
L 336.15 113.35 336.15 104.75
M 349 104.65
Q 348.05 104.65 347.25 104.95 346.45 105.3 345.9 105.85 345.3 106.45 345 107.25 344.7 108.1 344.7 109.05 344.7 110 345 110.85 345.3 111.65 345.8 112.25 346.35 112.8 347.1 113.1 347.85 113.45 348.8 113.45 349.85 113.45 350.6 113.1 351.35 112.75 351.9 112.15
L 351.45 111.65
Q 351.35 111.55 351.25 111.55 351.15 111.55 351.05 111.65 350.85 111.85 350.6 112 350.4 112.15 350.1 112.25 349.85 112.35 349.55 112.4 349.25 112.45 348.85 112.45 348.25 112.45 347.7 112.2 347.15 112 346.75 111.55 346.35 111.1 346.1 110.5 345.9 109.85 345.9 109.05 345.9 108.25 346.1 107.65 346.35 107 346.75 106.55 347.15 106.15 347.75 105.9 348.3 105.65 349 105.65 349.4 105.65 349.7 105.7 349.95 105.75 350.2 105.85 350.4 105.95 350.6 106.05 350.75 106.15 350.85 106.2 351 106.3 351.05 106.35 351.15 106.4 351.25 106.4 351.35 106.4 351.4 106.4 351.45 106.35 351.5 106.3
L 351.85 105.75
Q 351.35 105.25 350.65 104.95 349.95 104.65 349 104.65
M 358.85 104.8
Q 358.7 104.9 358.6 105
L 355.75 108.25
Q 355.6 108.4 355.45 108.45 355.35 108.5 355.1 108.5
L 354.65 108.5 354.65 104.75 353.5 104.75 353.5 113.35 354.65 113.35 354.65 109.4 355.2 109.4
Q 355.35 109.4 355.45 109.45 355.55 109.45 355.6 109.5 355.7 109.5 355.75 109.55 355.8 109.6 355.85 109.7
L 358.85 113.1
Q 358.9 113.15 358.95 113.2 359 113.25 359.05 113.3 359.1 113.3 359.2 113.35 359.25 113.35 359.35 113.35
L 360.4 113.35 356.95 109.25
Q 356.8 109.1 356.7 109 356.55 108.9 356.4 108.85 356.55 108.8 356.65 108.7 356.75 108.6 356.85 108.45
L 360.15 104.75 359.15 104.75
Q 358.95 104.75 358.85 104.8
M 366.45 113.35
L 366.45 112.35 362.7 112.35 362.7 104.75 361.55 104.75 361.55 113.35 366.45 113.35
M 369.1 104.75
L 367.9 104.75 367.9 113.35 369.1 113.35 369.1 104.75
M 378.35 104.75
L 377.35 104.75 377.35 110.85
Q 377.35 111 377.35 111.1 377.35 111.25 377.4 111.45
L 372.4 104.95
Q 372.3 104.8 372.25 104.8 372.15 104.75 372 104.75
L 371.4 104.75 371.4 113.35 372.4 113.35 372.4 107.25
Q 372.4 107.1 372.4 106.95 372.4 106.8 372.4 106.65
L 377.35 113.15
Q 377.45 113.25 377.55 113.3 377.65 113.35 377.8 113.35
L 378.35 113.35 378.35 104.75
M 385.75 105.7
L 385.75 104.75 380.45 104.75 380.45 113.35 385.75 113.35 385.75 112.4 381.6 112.4 381.6 109.45 384.95 109.45 384.95 108.55 381.6 108.55 381.6 105.7 385.75 105.7
M 570.15 104.75
L 567.7 104.75 567.7 113.35 568.85 113.35 568.85 109.75 569.75 109.75
Q 570 109.75 570.1 109.8 570.25 109.9 570.35 110.05
L 572.55 113.1
Q 572.7 113.35 573.05 113.35
L 574.05 113.35 571.55 109.95
Q 571.4 109.7 571.2 109.55 571.7 109.45 572.05 109.25 572.45 109 572.75 108.7 573 108.4 573.15 108 573.3 107.6 573.3 107.15 573.3 106.6 573.1 106.15 572.9 105.7 572.55 105.4 572.15 105.1 571.55 104.9 570.95 104.75 570.15 104.75
M 570.15 105.65
Q 571.15 105.65 571.65 106.05 572.15 106.45 572.15 107.2 572.15 107.6 572.05 107.9 571.9 108.2 571.65 108.45 571.35 108.65 571 108.8 570.6 108.9 570.1 108.9
L 568.85 108.9 568.85 105.65 570.15 105.65
M 578.4 105.75
L 581.2 105.75 581.2 104.75 574.45 104.75 574.45 105.75 577.25 105.75 577.25 113.35 578.4 113.35 578.4 105.75
M 639.3 105.75
L 639.3 104.75 632.55 104.75 632.55 105.75 635.35 105.75 635.35 113.35 636.5 113.35 636.5 105.75 639.3 105.75
M 644.5 104.9
Q 643.9 104.75 643.1 104.75
L 640.65 104.75 640.65 113.35 641.8 113.35 641.8 109.75 642.7 109.75
Q 642.95 109.75 643.05 109.8 643.2 109.9 643.3 110.05
L 645.5 113.1
Q 645.65 113.35 646 113.35
L 647 113.35 644.5 109.95
Q 644.35 109.7 644.15 109.55 644.65 109.45 645 109.25 645.4 109 645.7 108.7 645.95 108.4 646.1 108 646.25 107.6 646.25 107.15 646.25 106.6 646.05 106.15 645.85 105.7 645.5 105.4 645.1 105.1 644.5 104.9
M 641.8 108.9
L 641.8 105.65 643.1 105.65
Q 644.1 105.65 644.6 106.05 645.1 106.45 645.1 107.2 645.1 107.6 645 107.9 644.85 108.2 644.6 108.45 644.3 108.65 643.95 108.8 643.55 108.9 643.05 108.9
L 641.8 108.9
M 488.3 104.9
Q 487.7 104.65 487 104.65 486.35 104.65 485.85 104.85 485.35 105.05 485 105.4 484.65 105.7 484.5 106.15 484.3 106.55 484.3 107 484.3 107.6 484.5 107.95 484.65 108.35 484.95 108.6 485.25 108.85 485.6 109.05 486 109.2 486.4 109.3 486.75 109.45 487.15 109.55 487.5 109.7 487.8 109.85 488.1 110 488.25 110.25 488.45 110.5 488.45 110.9 488.45 111.25 488.3 111.55 488.2 111.85 487.95 112.05 487.75 112.25 487.4 112.35 487.1 112.5 486.7 112.5 486.2 112.5 485.85 112.35 485.5 112.2 485.25 112.05 485 111.9 484.85 111.75 484.7 111.6 484.55 111.6 484.45 111.6 484.4 111.65 484.35 111.7 484.3 111.75
L 483.95 112.3
Q 484.45 112.85 485.1 113.15 485.8 113.45 486.65 113.45 487.35 113.45 487.85 113.25 488.4 113 488.75 112.65 489.15 112.3 489.35 111.8 489.5 111.3 489.5 110.75 489.5 110.2 489.35 109.85 489.15 109.45 488.9 109.2 488.6 108.95 488.2 108.8 487.85 108.65 487.45 108.5 487.05 108.35 486.7 108.25 486.35 108.1 486.05 107.95 485.75 107.8 485.55 107.55 485.4 107.3 485.4 106.95 485.4 106.65 485.5 106.45 485.6 106.2 485.8 106 486 105.85 486.3 105.7 486.6 105.6 487 105.6 487.4 105.6 487.7 105.7 488 105.8 488.2 105.95 488.4 106.05 488.55 106.15 488.65 106.25 488.8 106.25 488.85 106.25 488.95 106.25 489 106.2 489.05 106.1
L 489.35 105.55
Q 488.9 105.1 488.3 104.9
M 551.8 104.65
Q 551.15 104.65 550.65 104.85 550.15 105.05 549.8 105.4 549.45 105.7 549.3 106.15 549.1 106.55 549.1 107 549.1 107.6 549.3 107.95 549.45 108.35 549.75 108.6 550.05 108.85 550.4 109.05 550.8 109.2 551.2 109.3 551.55 109.45 551.95 109.55 552.3 109.7 552.6 109.85 552.9 110 553.05 110.25 553.25 110.5 553.25 110.9 553.25 111.25 553.1 111.55 553 111.85 552.75 112.05 552.55 112.25 552.2 112.35 551.9 112.5 551.5 112.5 551 112.5 550.65 112.35 550.3 112.2 550.05 112.05 549.8 111.9 549.65 111.75 549.5 111.6 549.35 111.6 549.25 111.6 549.2 111.65 549.15 111.7 549.1 111.75
L 548.75 112.3
Q 549.25 112.85 549.9 113.15 550.6 113.45 551.45 113.45 552.15 113.45 552.65 113.25 553.2 113 553.55 112.65 553.95 112.3 554.15 111.8 554.3 111.3 554.3 110.75 554.3 110.2 554.15 109.85 553.95 109.45 553.7 109.2 553.4 108.95 553 108.8 552.65 108.65 552.25 108.5 551.85 108.35 551.5 108.25 551.15 108.1 550.85 107.95 550.55 107.8 550.35 107.55 550.2 107.3 550.2 106.95 550.2 106.65 550.3 106.45 550.4 106.2 550.6 106 550.8 105.85 551.1 105.7 551.4 105.6 551.8 105.6 552.2 105.6 552.5 105.7 552.8 105.8 553 105.95 553.2 106.05 553.35 106.15 553.45 106.25 553.6 106.25 553.65 106.25 553.75 106.25 553.8 106.2 553.85 106.1
L 554.15 105.55
Q 553.7 105.1 553.1 104.9 552.5 104.65 551.8 104.65
M 561.2 104.8
Q 561.05 104.9 560.95 105
L 558.1 108.25
Q 557.95 108.4 557.8 108.45 557.7 108.5 557.45 108.5
L 557 108.5 557 104.75 555.85 104.75 555.85 113.35 557 113.35 557 109.4 557.55 109.4
Q 557.7 109.4 557.8 109.45 557.9 109.45 557.95 109.5 558.05 109.5 558.1 109.55 558.15 109.6 558.2 109.7
L 561.2 113.1
Q 561.25 113.15 561.3 113.2 561.35 113.25 561.4 113.3 561.45 113.3 561.55 113.35 561.6 113.35 561.7 113.35
L 562.75 113.35 559.3 109.25
Q 559.15 109.1 559.05 109 558.9 108.9 558.75 108.85 558.9 108.8 559 108.7 559.1 108.6 559.2 108.45
L 562.5 104.75 561.5 104.75
Q 561.3 104.75 561.2 104.8
M 565.3 104.75
L 564.1 104.75 564.1 113.35 565.3 113.35 565.3 104.75
M 651.95 104.75
L 650.75 104.75 647.3 113.35 648.2 113.35
Q 648.35 113.35 648.45 113.25 648.55 113.2 648.6 113.05
L 649.4 111 653.25 111 654.05 113.05
Q 654.1 113.2 654.2 113.25 654.3 113.35 654.45 113.35
L 655.35 113.35 651.95 104.75
M 652.95 110.15
L 649.75 110.15 651.1 106.65
Q 651.15 106.5 651.2 106.3 651.25 106.1 651.35 105.85 651.45 106.35 651.6 106.65
L 652.95 110.15
M 657.85 104.75
L 656.65 104.75 656.65 113.35 657.85 113.35 657.85 104.75
M 660.75 104.75
L 660.15 104.75 660.15 113.35 661.15 113.35 661.15 107.25
Q 661.15 107.1 661.15 106.95 661.15 106.8 661.15 106.65
L 666.1 113.15
Q 666.2 113.25 666.3 113.3 666.4 113.35 666.55 113.35
L 667.1 113.35 667.1 104.75 666.1 104.75 666.1 110.85
Q 666.1 111 666.1 111.1 666.1 111.25 666.15 111.45
L 661.15 104.95
Q 661.05 104.8 661 104.8 660.9 104.75 660.75 104.75 Z"/>

<path fill="#FF0066" stroke="none" d="
M 57.1 69.3
Q 53.95 69.3 51.75 71.5 49.6 73.7 49.6 76.8 49.6 79.9 51.75 82.1 53.95 84.3 57.1 84.3 60.2 84.3 62.35 82.1 64.6 79.9 64.6 76.8 64.6 73.7 62.35 71.5 60.2 69.3 57.1 69.3 Z"/>

<path fill="#CCCCCC" stroke="none" d="
M 162 77
Q 162 76.85 162 76.7 161.9 72.55 158.9 69.55 155.8 66.45 151.45 66.45 147.1 66.45 144 69.55 141 72.55 140.9 76.7 140.9 76.85 140.9 77 140.9 81.35 144 84.45 147.1 87.55 151.45 87.55 155.8 87.55 158.9 84.45 162 81.35 162 77
M 151.45 69.55
Q 154.55 69.55 156.7 71.75 158.95 73.95 158.95 77.05 158.95 80.15 156.7 82.35 154.55 84.55 151.45 84.55 148.3 84.55 146.1 82.35 143.95 80.15 143.95 77.05 143.95 73.95 146.1 71.75 148.3 69.55 151.45 69.55
M 256.9 69.55
Q 253.8 66.45 249.45 66.45 245.1 66.45 242 69.55 239 72.55 238.9 76.7 238.9 76.85 238.9 77 238.9 81.35 242 84.45 245.1 87.55 249.45 87.55 253.8 87.55 256.9 84.45 260 81.35 260 77 260 76.85 260 76.7 259.9 72.55 256.9 69.55
M 244.15 71.75
Q 246.35 69.55 249.5 69.55 252.6 69.55 254.75 71.75 257 73.95 257 77.05 257 80.15 254.75 82.35 252.6 84.55 249.5 84.55 246.35 84.55 244.15 82.35 242 80.15 242 77.05 242 73.95 244.15 71.75
M 360.15 66.45
Q 355.8 66.45 352.7 69.55 349.7 72.55 349.6 76.7 349.6 76.85 349.6 77 349.6 81.35 352.7 84.45 355.8 87.55 360.15 87.55 364.5 87.55 367.6 84.45 370.7 81.35 370.7 77 370.7 76.85 370.7 76.7 370.6 72.55 367.6 69.55 364.5 66.45 360.15 66.45
M 354.75 71.75
Q 356.95 69.55 360.1 69.55 363.2 69.55 365.35 71.75 367.6 73.95 367.6 77.05 367.6 80.15 365.35 82.35 363.2 84.55 360.1 84.55 356.95 84.55 354.75 82.35 352.6 80.15 352.6 77.05 352.6 73.95 354.75 71.75
M 476.35 69.55
Q 473.25 66.45 468.9 66.45 464.55 66.45 461.45 69.55 458.45 72.55 458.35 76.7 458.35 76.85 458.35 77 458.35 81.35 461.45 84.45 464.55 87.55 468.9 87.55 473.25 87.55 476.35 84.45 479.45 81.35 479.45 77 479.45 76.85 479.45 76.7 479.35 72.55 476.35 69.55
M 468.85 69.3
Q 471.95 69.3 474.1 71.5 476.35 73.7 476.35 76.8 476.35 79.9 474.1 82.1 471.95 84.3 468.85 84.3 465.7 84.3 463.5 82.1 461.35 79.9 461.35 76.8 461.35 73.7 463.5 71.5 465.7 69.3 468.85 69.3
M 573.35 84.45
Q 576.45 81.35 576.45 77 576.45 72.65 573.35 69.55 570.25 66.45 565.9 66.45 561.55 66.45 558.45 69.55 555.45 72.55 555.35 76.7 555.35 76.85 555.35 77 555.35 81.35 558.45 84.45 561.55 87.55 565.9 87.55 570.25 87.55 573.35 84.45
M 571.1 71.5
Q 573.35 73.7 573.35 76.8 573.35 79.9 571.1 82.1 568.95 84.3 565.85 84.3 562.7 84.3 560.5 82.1 558.35 79.9 558.35 76.8 558.35 73.7 560.5 71.5 562.7 69.3 565.85 69.3 568.95 69.3 571.1 71.5
M 651.8 87.55
Q 656.15 87.55 659.25 84.45 662.35 81.35 662.35 77 662.35 72.65 659.25 69.55 656.15 66.45 651.8 66.45 647.45 66.45 644.35 69.55 641.35 72.55 641.25 76.7 641.25 76.85 641.25 77 641.25 81.35 644.35 84.45 647.45 87.55 651.8 87.55
M 657 71.5
Q 659.25 73.7 659.25 76.8 659.25 79.9 657 82.1 654.85 84.3 651.75 84.3 648.6 84.3 646.4 82.1 644.25 79.9 644.25 76.8 644.25 73.7 646.4 71.5 648.6 69.3 651.75 69.3 654.85 69.3 657 71.5 Z"/>

<path fill="#FFFFFF" stroke="none" d="
M 156.7 71.75
Q 154.55 69.55 151.45 69.55 148.3 69.55 146.1 71.75 143.95 73.95 143.95 77.05 143.95 80.15 146.1 82.35 148.3 84.55 151.45 84.55 154.55 84.55 156.7 82.35 158.95 80.15 158.95 77.05 158.95 73.95 156.7 71.75
M 249.5 69.55
Q 246.35 69.55 244.15 71.75 242 73.95 242 77.05 242 80.15 244.15 82.35 246.35 84.55 249.5 84.55 252.6 84.55 254.75 82.35 257 80.15 257 77.05 257 73.95 254.75 71.75 252.6 69.55 249.5 69.55
M 360.1 69.55
Q 356.95 69.55 354.75 71.75 352.6 73.95 352.6 77.05 352.6 80.15 354.75 82.35 356.95 84.55 360.1 84.55 363.2 84.55 365.35 82.35 367.6 80.15 367.6 77.05 367.6 73.95 365.35 71.75 363.2 69.55 360.1 69.55
M 474.1 71.5
Q 471.95 69.3 468.85 69.3 465.7 69.3 463.5 71.5 461.35 73.7 461.35 76.8 461.35 79.9 463.5 82.1 465.7 84.3 468.85 84.3 471.95 84.3 474.1 82.1 476.35 79.9 476.35 76.8 476.35 73.7 474.1 71.5
M 573.35 76.8
Q 573.35 73.7 571.1 71.5 568.95 69.3 565.85 69.3 562.7 69.3 560.5 71.5 558.35 73.7 558.35 76.8 558.35 79.9 560.5 82.1 562.7 84.3 565.85 84.3 568.95 84.3 571.1 82.1 573.35 79.9 573.35 76.8
M 659.25 76.8
Q 659.25 73.7 657 71.5 654.85 69.3 651.75 69.3 648.6 69.3 646.4 71.5 644.25 73.7 644.25 76.8 644.25 79.9 646.4 82.1 648.6 84.3 651.75 84.3 654.85 84.3 657 82.1 659.25 79.9 659.25 76.8 Z"/>
</g>

<g id="Layer1_0_FILL">
<path fill="#FF0066" stroke="none" d="
M 64.6 76.8
Q 64.6 73.7 62.35 71.5 60.2 69.3 57.1 69.3 53.95 69.3 51.75 71.5 49.6 73.7 49.6 76.8 49.6 79.9 51.75 82.1 53.95 84.3 57.1 84.3 60.2 84.3 62.35 82.1 64.6 79.9 64.6 76.8
M 158.95 77.05
Q 158.95 73.95 156.7 71.75 154.55 69.55 151.45 69.55 148.3 69.55 146.1 71.75 143.95 73.95 143.95 77.05 143.95 80.15 146.1 82.35 148.3 84.55 151.45 84.55 154.55 84.55 156.7 82.35 158.95 80.15 158.95 77.05 Z"/>

<path fill="#FFFFFF" stroke="none" d="
M 257 77.05
Q 257 73.95 254.75 71.75 252.6 69.55 249.5 69.55 246.35 69.55 244.15 71.75 242 73.95 242 77.05 242 80.15 244.15 82.35 246.35 84.55 249.5 84.55 252.6 84.55 254.75 82.35 257 80.15 257 77.05
M 360.1 69.55
Q 356.95 69.55 354.75 71.75 352.6 73.95 352.6 77.05 352.6 80.15 354.75 82.35 356.95 84.55 360.1 84.55 363.2 84.55 365.35 82.35 367.6 80.15 367.6 77.05 367.6 73.95 365.35 71.75 363.2 69.55 360.1 69.55
M 476.35 76.8
Q 476.35 73.7 474.1 71.5 471.95 69.3 468.85 69.3 465.7 69.3 463.5 71.5 461.35 73.7 461.35 76.8 461.35 79.9 463.5 82.1 465.7 84.3 468.85 84.3 471.95 84.3 474.1 82.1 476.35 79.9 476.35 76.8
M 573.35 76.8
Q 573.35 73.7 571.1 71.5 568.95 69.3 565.85 69.3 562.7 69.3 560.5 71.5 558.35 73.7 558.35 76.8 558.35 79.9 560.5 82.1 562.7 84.3 565.85 84.3 568.95 84.3 571.1 82.1 573.35 79.9 573.35 76.8
M 659.25 76.8
Q 659.25 73.7 657 71.5 654.85 69.3 651.75 69.3 648.6 69.3 646.4 71.5 644.25 73.7 644.25 76.8 644.25 79.9 646.4 82.1 648.6 84.3 651.75 84.3 654.85 84.3 657 82.1 659.25 79.9 659.25 76.8 Z"/>
</g>

<g id="Layer0_0_FILL">
<path fill="#666666" stroke="none" d="
M 333.15 22.75
Q 332.65 22.55 331.85 22.55 330.65 22.55 329.7 23 328.75 23.4 328.05 24.1 327.35 24.8 326.85 25.7 326.35 26.6 326.05 27.55 325.75 28.45 325.65 29.35 325.5 30.25 325.5 30.9 325.5 31.9 325.75 32.6 326 33.3 326.5 33.75 326.95 34.2 327.65 34.45 328.3 34.65 329.15 34.65 330.3 34.65 331.3 34.25 332.25 33.9 333.05 33.3 333.85 32.7 334.5 31.9 334.5314453125 31.861328125 334.55 31.8 334.624609375 32.2740234375 334.75 32.65 335 33.35 335.45 33.8 335.9 34.25 336.45 34.45 337 34.65 337.6 34.65 338.25 34.65 338.75 34.45 339.3 34.25 339.75 33.95 340.15 33.65 340.5 33.25 340.85 32.9 341.1 32.5 341.25 33.5 341.85 34 342.45 34.5 343.4 34.5 343.7 34.5 344.1 34.45 344.45 34.4 344.9 34.25 345.3 34.1 345.75 33.85 346.15 33.55 346.6 33.1 347 32.6 347.4 31.95 347.8 31.25 348.1 30.3
L 347.15 30.3
Q 347 30.75 346.8 31.15 346.65 31.5 346.4 31.8 346.15 32.05 345.85 32.2 345.55 32.35 345.25 32.35 344.75 32.35 344.5 32.2 344.25 32 344.25 31.5 344.25 31.3 344.3 31.15 344.3 30.95 344.35 30.75
L 347.05 18.05 343.6 18.5 342.45 23.9 342.45 23.85
Q 342.45 23.3 342 23 341.55 22.65 340.55 22.65 339.5 22.65 338.65 23.05 337.8 23.4 337.15 24.05 336.5 24.7 336 25.55 335.5 26.4 335.15 27.3 334.8 28.2 334.65 29.15 334.5208984375 29.924609375 334.5 30.6 334.2154296875 30.9345703125 333.95 31.2 333.5 31.65 333 32 332.5 32.3 331.95 32.5 331.35 32.65 330.65 32.65 330.25 32.65 329.95 32.6 329.6 32.5 329.4 32.25 329.2 32.05 329.1 31.7 328.95 31.3 328.95 30.7 328.95 30.5 329 30.25 329 30 329 29.75 330.1 29.7 331.05 29.3 332.05 28.9 332.8 28.2 333.55 27.55 334 26.7 334.45 25.8 334.45 24.8 334.45 24.35 334.35 23.95 334.2 23.55 333.9 23.25 333.65 22.9 333.15 22.75
M 332.05 23.8
Q 332.35 23.8 332.5 24.05 332.6 24.3 332.6 24.75 332.6 25.5 332.35 26.15 332.05 26.85 331.6 27.4 331.1 27.9 330.5 28.25 329.85 28.6 329.2 28.65 329.4 27.75 329.7 26.9 329.95 26 330.35 25.35 330.7 24.65 331.15 24.2 331.6 23.8 332.05 23.8
M 340.35 24.4
Q 340.75 24.1 341.25 24.1 341.55 24.1 341.7 24.2 341.9 24.25 342 24.4 342.1 24.55 342.15 24.65 342.2 24.8 342.2 24.9
L 341.1 30.3 341.1 30.4
Q 340.95 30.9 340.75 31.3 340.5 31.65 340.25 31.9 340 32.1 339.7 32.25 339.4 32.35 339.15 32.35 339 32.35 338.8 32.35 338.6 32.3 338.4 32.1 338.2 31.95 338.1 31.55 337.95 31.2 337.95 30.55 337.95 30 338.05 29.3 338.15 28.6 338.4 27.9 338.6 27.15 338.85 26.5 339.15 25.8 339.5 25.25 339.9 24.75 340.35 24.4
M 326.1 24.5
Q 326.1 24.15 326 23.85 325.9 23.55 325.7 23.3 325.5 23.05 325.2 22.9 324.85 22.75 324.45 22.75 324.05 22.75 323.65 22.9 323.3 23 322.95 23.2 322.6 23.4 322.25 23.65 321.95 23.95 321.65 24.2
L 321.95 22.75 318.55 22.75 316.05 34.5 319.45 34.5 321.3 25.55
Q 321.75 25.15 322.15 24.95 322.5 24.7 323.05 24.7 323.2 24.7 323.3 24.8 323.35 24.9 323.4 25.1 323.45 25.25 323.5 25.45 323.5 25.65 323.6 25.85 323.7 26 323.9 26.1 324.05 26.25 324.4 26.25 324.8 26.25 325.15 26.1 325.45 25.9 325.7 25.7 325.9 25.45 326 25.15 326.1 24.85 326.1 24.5
M 307.65 23.95
Q 307.5 23.55 307.2 23.25 306.95 22.9 306.45 22.75 305.95 22.55 305.15 22.55 303.95 22.55 303 23 302.05 23.4 301.35 24.1 300.65 24.8 300.15 25.7 299.65 26.6 299.35 27.55 299.05 28.45 298.95 29.35 298.8 30.25 298.8 30.9 298.8 31.9 299.05 32.6 299.3 33.3 299.8 33.75 300.25 34.2 300.95 34.45 301.6 34.65 302.45 34.65 303.6 34.65 304.6 34.25 305.55 33.9 306.35 33.3 307.1115234375 32.72890625 307.7 31.95
L 307.2 34.5 310.6 34.5 312.45 25.55
Q 312.9 25.15 313.3 24.95 313.65 24.7 314.2 24.7 314.35 24.7 314.45 24.8 314.5 24.9 314.55 25.1 314.6 25.25 314.65 25.45 314.65 25.65 314.75 25.85 314.85 26 315.05 26.1 315.2 26.25 315.55 26.25 315.95 26.25 316.3 26.1 316.6 25.9 316.85 25.7 317.05 25.45 317.15 25.15 317.25 24.85 317.25 24.5 317.25 24.15 317.15 23.85 317.05 23.55 316.85 23.3 316.65 23.05 316.35 22.9 316 22.75 315.6 22.75 315.2 22.75 314.8 22.9 314.45 23 314.1 23.2 313.75 23.4 313.4 23.65 313.1 23.95 312.8 24.2
L 313.1 22.75 309.7 22.75 308.05 30.3
Q 307.640234375 30.809765625 307.25 31.2 306.8 31.65 306.3 32 305.8 32.3 305.25 32.5 304.65 32.65 303.95 32.65 303.55 32.65 303.25 32.6 302.9 32.5 302.7 32.25 302.5 32.05 302.4 31.7 302.25 31.3 302.25 30.7 302.25 30.5 302.3 30.25 302.3 30 302.3 29.75 303.4 29.7 304.35 29.3 305.35 28.9 306.1 28.2 306.85 27.55 307.3 26.7 307.75 25.8 307.75 24.8 307.75 24.35 307.65 23.95
M 305.35 23.8
Q 305.65 23.8 305.8 24.05 305.9 24.3 305.9 24.75 305.9 25.5 305.65 26.15 305.35 26.85 304.9 27.4 304.4 27.9 303.8 28.25 303.15 28.6 302.5 28.65 302.7 27.75 303 26.9 303.25 26 303.65 25.35 304 24.65 304.45 24.2 304.9 23.8 305.35 23.8
M 287.75 23
Q 286.8 23.4 286.1 24.1 285.4 24.8 284.9 25.7 284.4 26.6 284.1 27.55 283.8 28.45 283.7 29.35 283.55 30.25 283.55 30.9 283.55 31.9 283.8 32.6 284.05 33.3 284.55 33.75 285 34.2 285.7 34.45 286.35 34.65 287.2 34.65 288.35 34.65 289.35 34.25 290.3 33.9 291.1 33.3 291.8673828125 32.7244140625 292.5 31.95
L 292 34.3
Q 291.15 34.55 290.45 34.85 289.7 35.1 289.15 35.5 288.6 35.9 288.3 36.45 287.95 37 287.95 37.85 287.95 38.4 288.2 38.9 288.45 39.35 288.8 39.7 289.2 40 289.7 40.2 290.2 40.4 290.75 40.4 291.3 40.4 291.95 40.25 292.55 40.1 293.15 39.65 293.75 39.2 294.2 38.4 294.7 37.65 294.95 36.4
L 297.65 23.7 299.4 23.7 299.55 22.75 297.85 22.75 298.25 20.9
Q 298.35 20.3 298.55 19.95 298.75 19.55 299 19.35 299.2 19.1 299.45 19.05 299.7 18.95 299.85 18.95 300.25 18.95 300.5 19.15 300.75 19.35 300.75 19.75 300.75 19.95 300.75 20.05 300.75 20.2 300.7 20.4
L 301.8 20.4
Q 301.9 20 301.9 19.45 301.9 18.85 301.65 18.4 301.4 17.95 301.05 17.6 300.65 17.25 300.15 17.1 299.65 16.9 299.15 16.9 298.55 16.9 297.9 17.05 297.25 17.2 296.65 17.65 296.05 18.05 295.6 18.85 295.1 19.65 294.85 20.9
L 292.85 30.3
Q 292.4 30.8 292 31.2 291.55 31.65 291.05 32 290.55 32.3 290 32.5 289.4 32.65 288.7 32.65 288.3 32.65 288 32.6 287.65 32.5 287.45 32.25 287.25 32.05 287.15 31.7 287 31.3 287 30.7 287 30.5 287.05 30.25 287.05 30 287.05 29.75 288.15 29.7 289.1 29.3 290.1 28.9 290.85 28.2 291.6 27.55 292.05 26.7 292.5 25.8 292.5 24.8 292.5 24.35 292.4 23.95 292.25 23.55 291.95 23.25 291.7 22.9 291.2 22.75 290.7 22.55 289.9 22.55 288.7 22.55 287.75 23
M 289.45 36.65
Q 289.65 36.3 290 36 290.35 35.7 290.8 35.5 291.3 35.25 291.85 35.1
L 291.55 36.45
Q 291.4 37 291.25 37.35 291.1 37.7 290.95 37.9 290.75 38.1 290.6 38.2 290.4 38.3 290.2 38.3 290 38.3 289.8 38.2 289.65 38.15 289.5 38.05 289.4 37.9 289.35 37.8 289.25 37.65 289.25 37.5 289.25 37.05 289.45 36.65
M 290.1 23.8
Q 290.4 23.8 290.55 24.05 290.65 24.3 290.65 24.75 290.65 25.5 290.4 26.15 290.1 26.85 289.65 27.4 289.15 27.9 288.55 28.25 287.9 28.6 287.25 28.65 287.45 27.75 287.75 26.9 288 26 288.4 25.35 288.75 24.65 289.2 24.2 289.65 23.8 290.1 23.8
M 284.15 24.5
Q 284.15 24.15 284.05 23.85 283.95 23.55 283.75 23.3 283.55 23.05 283.25 22.9 282.9 22.75 282.5 22.75 282.1 22.75 281.7 22.9 281.35 23 281 23.2 280.65 23.4 280.3 23.65 280 23.95 279.7 24.2
L 280 22.75 276.6 22.75 274.1 34.5 277.5 34.5 279.35 25.55
Q 279.8 25.15 280.2 24.95 280.55 24.7 281.1 24.7 281.25 24.7 281.35 24.8 281.4 24.9 281.45 25.1 281.5 25.25 281.55 25.45 281.55 25.65 281.65 25.85 281.75 26 281.95 26.1 282.1 26.25 282.45 26.25 282.85 26.25 283.2 26.1 283.5 25.9 283.75 25.7 283.95 25.45 284.05 25.15 284.15 24.85 284.15 24.5
M 269.2 21.9
L 265.8 21.9 261.85 40.4 265.4 39.55 266.65 33.8
Q 266.75 33.95 266.9 34.1 267.05 34.25 267.3 34.4 267.5 34.5 267.85 34.55 268.2 34.65 268.6 34.65 269.75 34.65 270.65 34.25 271.5 33.85 272.15 33.2 272.8 32.55 273.25 31.7 273.65 30.85 273.95 29.9 274.2 29 274.3 28.05 274.4 27.15 274.4 26.35 274.4 25.3 274.2 24.6 273.95 23.85 273.6 23.45 273.2 23 272.65 22.85 272.15 22.65 271.55 22.65 270.65 22.65 270 22.9 269.3 23.2 268.8 23.65
L 269.2 21.9
M 270 24.3
Q 270.15 24.3 270.4 24.4 270.6 24.45 270.75 24.6 270.95 24.8 271.05 25.2 271.2 25.6 271.2 26.25 271.2 26.8 271.15 27.5 271.05 28.2 270.9 28.9 270.7 29.6 270.45 30.25 270.2 30.9 269.85 31.45 269.5 31.95 269 32.3 268.5 32.6 267.9 32.6 267.5 32.6 267.3 32.4 267.1 32.25 267 32.05
L 268.4 25.5
Q 268.75 24.9 269.2 24.6 269.6 24.3 270 24.3
M 206.45 22.3
Q 205.5 22.7 204.8 23.45 204.1 24.15 203.6 25.05 203.05 26 202.75 26.95 202.45 27.9 202.3 28.8 202.2279296875 29.4486328125 202.2 30 201.987890625 30.1716796875 201.75 30.35 201.3 30.65 200.8 30.95 200.85 30.75 200.85 30.55 200.9 30.3 200.9 30.05 200.9 29.65 200.85 29.3 200.85 28.9 200.8 28.45 200.75 28 200.7 27.4 200.65 26.85 200.6 26 200.55 25.15 200.5 24 200.45 22.85 200.35 21.3
L 196.8 21.8
Q 196.3927734375 23.09609375 195.9 24.4 195.58046875 24.609765625 195.2 24.8 194.75 25.05 194.25 25.25 193.75 25.45 193.3 25.6 192.8 25.7 192.35 25.7 192.3 25.7 192.25 25.7 192.2 25.7 192.1 25.7
L 192.1 25.65
Q 192.1 21.85 189.05 21.85 187.8 21.85 186.85 22.3 185.9 22.7 185.15 23.45 184.4 24.15 183.9 25.05 183.8578125 25.12578125 183.8 25.2 183.758984375 25.2263671875 183.7 25.25 183.2 25.45 182.75 25.6 182.25 25.7 181.8 25.7 181.75 25.7 181.7 25.7 181.65 25.7 181.55 25.7
L 181.55 25.65
Q 181.55 21.85 178.5 21.85 177.25 21.85 176.3 22.3 175.35 22.7 174.6 23.45 173.85 24.15 173.35 25.05 172.85 25.95 172.55 26.9 172.2 27.85 172.05 28.75 171.9 29.65 171.9 30.35 171.9 30.4775390625 171.9 30.6 171.7 31 171.45 31.3 171.2 31.55 170.95 31.7 170.65 31.85 170.25 31.85 169.7 31.85 169.5 31.6 169.3 31.3 169.3 30.85 169.3 30.5 169.4 30.1 169.45 29.6 169.6 29.1 169.7 28.55 169.9 28 170 27.4 170.15 26.85 170.3 26.25 170.35 25.7 170.45 25.15 170.45 24.65 170.45 23.95 170.25 23.45 170.05 22.9 169.7 22.6 169.35 22.25 168.85 22.1 168.35 21.95 167.8 21.95 167.5 21.95 167.2 22 166.85 22.05 166.5 22.2 166.15 22.35 165.75 22.6 165.35 22.85 165 23.3
L 166.25 17.25 162.7 17.75 160.15 29.8
Q 159.31171875 30.870703125 158.15 31.5 156.95 32.15 155.5 32.15 154.65 32.15 154.1 31.85 153.55 31.6 153.2 31.1 152.9 30.6 152.75 29.9 152.65 29.2 152.65 28.4 152.65 27.15 152.85 25.85 153 24.55 153.35 23.3 153.65 22.05 154.15 20.95 154.6 19.85 155.15 19 155.7 18.15 156.35 17.65 156.95 17.2 157.65 17.2 158.05 17.2 158.3 17.3 158.6 17.4 158.75 17.6 158.95 17.8 159.05 18.1 159.1 18.35 159.1 18.65 159.1 19 159 19.35 158.9 19.7 158.75 20 158.6 20.3 158.4 20.55 158.2 20.75 158 20.85 158.35 21.25 158.7 21.35 159.1 21.5 159.35 21.5 159.8 21.5 160.15 21.3 160.45 21.15 160.65 20.85 160.85 20.55 160.95 20.15 161.05 19.75 161.05 19.25 161.05 18.4 160.75 17.8 160.4 17.2 159.9 16.8 159.35 16.4 158.6 16.25 157.85 16.05 157.05 16.05 155.85 16.05 154.85 16.4 153.9 16.75 153.1 17.4 152.25 18 151.6 18.85 151 19.7 150.5 20.65 150 21.65 149.65 22.65 149.3 23.7 149.1 24.75 148.85 25.8 148.75 26.75 148.65 27.7 148.65 28.55 148.65 30.15 149 31.25 149.3 32.4 149.95 33.1 150.6 33.8 151.6 34.1 152.55 34.45 153.9 34.45 154.75 34.45 155.75 34.2 156.7 33.95 157.7 33.4 158.65 32.9 159.45 32.05 159.60546875 31.884765625 159.75 31.7
L 159.25 34.05 162.7 34.05 164.3 26.35
Q 164.45 25.9 164.65 25.5 164.85 25.1 165.05 24.8 165.3 24.5 165.6 24.3 165.85 24.15 166.2 24.15 167.05 24.15 167.05 25.35 167.05 25.95 166.9 26.75 166.7 27.55 166.55 28.4 166.35 29.25 166.15 30.05 166 30.85 166 31.5 166 32 166.15 32.5 166.3 32.95 166.6 33.35 166.95 33.75 167.45 33.95 168 34.2 168.8 34.2 169.3 34.2 169.85 34.05 170.45 33.9 171.05 33.45 171.6 33 172.2 32.1 172.5 32.85 173 33.3 173.5 33.75 174.2 33.95 174.9 34.15 175.75 34.15 176.85 34.15 177.85 33.65 178.8 33.15 179.6 32.2 180.35 31.25 180.85 29.95 181.35 28.6 181.5 26.95 182.4248046875 26.7720703125 183.25 26.45 183.16875 26.6826171875 183.1 26.9 182.75 27.85 182.6 28.75 182.45 29.65 182.45 30.35 182.45 31.4 182.75 32.1 183.05 32.85 183.55 33.3 184.05 33.75 184.75 33.95 185.45 34.15 186.3 34.15 187.4 34.15 188.4 33.65 189.35 33.15 190.15 32.2 190.9 31.25 191.4 29.95 191.9 28.6 192.05 26.95 193.35 26.7 194.45 26.2 194.9875 25.94296875 195.4 25.65 194.7634765625 27.2556640625 193.85 28.9 193.6 29 193.4 29.2 193.15 29.4 193 29.7 192.8 30 192.7 30.35 192.6 30.7 192.6 31.1 192.6 31.65 192.8 32.2 193 32.75 193.4 33.2 193.85 33.65 194.5 33.9 195.2 34.2 196.1 34.2 196.55 34.2 197.05 34.1 197.55 34.05 198.05 33.85 198.55 33.7 199 33.45 199.5 33.15 199.85 32.75 200.7 32.25 201.65 31.55 201.9431640625 31.333984375 202.2 31.05 202.2888671875 31.666796875 202.45 32.15 202.7 32.85 203.2 33.3 203.7 33.75 204.4 34 205.1 34.2 205.95 34.2 207.1 34.2 208.1 33.8 209.1 33.45 209.9 32.8 210.75 32.2 211.4 31.4 212.05 30.6 212.55 29.75
L 211.7 29.75
Q 211.25 30.25 210.8 30.7 210.35 31.15 209.85 31.45 209.35 31.8 208.75 32 208.2 32.2 207.45 32.2 207.05 32.2 206.7 32.1 206.4 32 206.2 31.8 205.95 31.55 205.85 31.15 205.75 30.75 205.75 30.15 205.75 29.95 205.75 29.7 205.75 29.45 205.8 29.2 206.85 29.15 207.85 28.7 208.85 28.3 209.65 27.65 210.4 26.95 210.85 26.1 211.3 25.2 211.3 24.15 211.3 23.7 211.2 23.3 211.1 22.85 210.8 22.55 210.5 22.25 210 22.05 209.45 21.85 208.65 21.85 207.45 21.85 206.45 22.3
M 208.85 23.1
Q 209.2 23.1 209.35 23.35 209.45 23.65 209.45 24.1 209.45 24.85 209.2 25.55 208.9 26.25 208.4 26.8 207.95 27.3 207.3 27.65 206.65 28 206 28.05 206.15 27.15 206.45 26.3 206.75 25.4 207.15 24.7 207.55 24 207.95 23.55 208.4 23.1 208.85 23.1
M 187.65 24.5
Q 188 23.95 188.4 23.65 188.8 23.3 189.25 23.3 189.5 23.3 189.65 23.35 189.8 23.45 189.9 23.6 190 23.75 190.05 24.05 190.1 24.3 190.15 24.7 189.8 24.85 189.6 25.15 189.4 25.5 189.4 26 189.4 26.35 189.55 26.65 189.65 26.9 190.05 27 189.9 28.05 189.6 28.95 189.35 29.9 188.95 30.55 188.6 31.2 188.15 31.6 187.7 32 187.25 32 186.95 32 186.7 31.9 186.45 31.8 186.3 31.6 186.15 31.4 186.1 31 186.05 30.65 186.05 30.05 186.05 29.45 186.15 28.7 186.25 28 186.5 27.25 186.7 26.5 187 25.8 187.3 25.05 187.65 24.5
M 177.1 24.5
Q 177.45 23.95 177.85 23.65 178.25 23.3 178.7 23.3 178.95 23.3 179.1 23.35 179.25 23.45 179.35 23.6 179.45 23.75 179.5 24.05 179.55 24.3 179.6 24.7 179.25 24.85 179.05 25.15 178.85 25.5 178.85 26 178.85 26.35 179 26.65 179.1 26.9 179.5 27 179.35 28.05 179.05 28.95 178.8 29.9 178.4 30.55 178.05 31.2 177.6 31.6 177.15 32 176.7 32 176.4 32 176.15 31.9 175.9 31.8 175.75 31.6 175.6 31.4 175.55 31 175.5 30.65 175.5 30.05 175.5 29.45 175.6 28.7 175.7 28 175.95 27.25 176.15 26.5 176.45 25.8 176.75 25.05 177.1 24.5
M 197.1 26
Q 197.15 26.7 197.2 27.2 197.25 27.75 197.3 28.15 197.3 28.55 197.35 28.85 197.35 29.2 197.4 29.5 197.4 29.75 197.4 30.05 197.4 30.7 197.25 31.1 197.05 31.55 196.75 31.8 196.45 32.05 196.1 32.2 195.7 32.3 195.3 32.3 194.5 32.3 194.2 31.9 193.85 31.45 193.85 30.6 193.95 30.8 194.1 30.85 194.3 30.95 194.5 30.95 194.75 30.95 194.95 30.85 195.15 30.75 195.25 30.55 195.4 30.4 195.5 30.2 195.55 29.95 195.55 29.75 195.55 29.45 195.4 29.25 195.25 29.05 195 28.9 195.6 27.75 196.1 26.65 196.6 25.55 196.95 24.4 197 25.3 197.1 26
M 250.1 22.05
L 246.65 22.05 245.05 29.75
Q 244.9 30.2 244.7 30.6 244.55 31 244.3 31.25 244.05 31.55 243.75 31.7 243.45 31.85 243.1 31.85 242.7 31.85 242.55 31.6 242.4 31.3 242.4 30.9 242.4 30.6 242.45 30.2
L 244.2 22.05 240.75 22.05 240.05 25.2
Q 240.035546875 25.2357421875 240 25.25 239.5 25.45 239.05 25.6 238.55 25.7 238.1 25.7 238.05 25.7 238 25.7 237.95 25.7 237.85 25.7
L 237.85 25.65
Q 237.85 21.85 234.8 21.85 233.55 21.85 232.6 22.3 231.65 22.7 230.9 23.45 230.15 24.15 229.65 25.05 229.15 25.95 228.85 26.9 228.5 27.85 228.35 28.75 228.2 29.65 228.2 30.35 228.2 30.5169921875 228.2 30.65 228.1072265625 30.903515625 228 31.1 227.7 31.65 227.35 32.05 227 32.45 226.55 32.75 226.1 33 225.55 33.2
L 227.9 22.05 224.45 22.05 222.8 29.9
Q 222.65 30.3 222.45 30.7 222.3 31.05 222.05 31.3 221.8 31.6 221.55 31.75 221.25 31.85 220.9 31.85 220.7 31.85 220.55 31.8 220.45 31.7 220.35 31.55 220.25 31.4 220.25 31.2 220.2 31.05 220.2 30.8 220.2 30.5 220.25 30.2
L 222 22.05 218.55 22.05 216.9 29.75
Q 216.8 30.2 216.75 30.6 216.7 31 216.7 31.3 216.7 32.1 216.9 32.6 217.1 33.15 217.45 33.5 217.8 33.85 218.25 34.05 218.75 34.2 219.3 34.2 219.6 34.2 219.95 34.15 220.3 34.1 220.65 33.95 221 33.8 221.4 33.55 221.8 33.3 222.15 32.85
L 221.85 34.15
Q 221.2 34.35 220.5 34.65 219.8 34.95 219.25 35.4 218.65 35.8 218.3 36.4 217.95 36.95 217.95 37.7 217.95 38.3 218.2 38.75 218.4 39.2 218.75 39.5 219.1 39.75 219.6 39.9 220.1 40.05 220.65 40.05 221.25 40.05 221.9 39.9 222.55 39.75 223.15 39.3 223.75 38.85 224.2 38.05 224.7 37.25 224.95 35.95
L 225.35 34.25
Q 225.9 34.1 226.5 33.85 227.1 33.55 227.65 33.05 228.084765625 32.6546875 228.5 32.05
L 228.5 32.1
Q 228.8 32.85 229.3 33.3 229.8 33.75 230.5 33.95 231.2 34.15 232.05 34.15 233.15 34.15 234.15 33.65 235.1 33.15 235.9 32.2 236.65 31.25 237.15 29.95 237.65 28.6 237.8 26.95 238.88515625 26.74140625 239.8 26.35
L 239.1 29.75
Q 239 30.2 238.95 30.6 238.9 31 238.9 31.3 238.9 32.1 239.1 32.6 239.3 33.15 239.65 33.5 240 33.85 240.45 34.05 240.95 34.2 241.5 34.2 241.85 34.2 242.3 34.1 242.7 34.05 243.2 33.8 243.65 33.55 244.1 33.1 244.55 32.65 245.05 31.9 245.15 33.05 245.75 33.65 246.4 34.2 247.4 34.2 247.75 34.2 248.1 34.15 248.5 34.05 248.9 33.9 249.35 33.75 249.8 33.45 250.212890625 33.174609375 250.55 32.7
L 250.3 34.05 253.75 34.05 255.65 24.95
Q 256.1 24.5 256.5 24.3 256.85 24 257.4 24 257.6 24 257.65 24.15 257.75 24.25 257.8 24.45 257.85 24.6 257.9 24.8 257.9 25 258 25.2 258.1 25.35 258.3 25.5 258.45 25.6 258.8 25.6 259.25 25.6 259.55 25.45 259.9 25.3 260.1 25.05 260.35 24.8 260.45 24.5 260.55 24.15 260.55 23.85 260.55 23.5 260.45 23.2 260.35 22.85 260.1 22.6 259.9 22.35 259.6 22.2 259.3 22.05 258.9 22.05 258.45 22.05 258.05 22.2 257.65 22.3 257.3 22.5 256.95 22.7 256.65 23 256.3 23.25 256 23.55
L 256.3 22.05 252.85 22.05 251.2 29.75 251.2 29.75
Q 251.1 30.2 250.9 30.6 250.7 31 250.45 31.25 250.2 31.55 249.95 31.7 249.6 31.85 249.25 31.85 248.75 31.85 248.55 31.7 248.3 31.5 248.3 31 248.3 30.8 248.3 30.6 248.35 30.4 248.4 30.2
L 250.1 22.05
M 235.8 24.05
Q 235.85 24.3 235.9 24.7 235.55 24.85 235.35 25.15 235.15 25.5 235.15 26 235.15 26.35 235.3 26.65 235.4 26.9 235.8 27 235.65 28.05 235.35 28.95 235.1 29.9 234.7 30.55 234.35 31.2 233.9 31.6 233.45 32 233 32 232.7 32 232.45 31.9 232.2 31.8 232.05 31.6 231.9 31.4 231.85 31 231.8 30.65 231.8 30.05 231.8 29.45 231.9 28.7 232 28 232.25 27.25 232.45 26.5 232.75 25.8 233.05 25.05 233.4 24.5 233.75 23.95 234.15 23.65 234.55 23.3 235 23.3 235.25 23.3 235.4 23.35 235.55 23.45 235.65 23.6 235.75 23.75 235.8 24.05
M 219.5 36.75
Q 219.65 36.45 220 36.2 220.3 35.95 220.75 35.75 221.15 35.55 221.6 35.35
L 221.5 36.05
Q 221.25 37.15 220.85 37.65 220.45 38.2 220.1 38.2 219.9 38.2 219.7 38.1 219.55 38.05 219.5 37.9 219.35 37.8 219.35 37.65 219.3 37.5 219.3 37.4 219.3 37.05 219.5 36.75
M 389.5 18.1
Q 389.35 17.75 389.05 17.5 388.8 17.25 388.45 17.1 388.1 16.95 387.7 16.95 387.3 16.95 386.95 17.1 386.6 17.25 386.35 17.5 386.1 17.75 385.95 18.1 385.8 18.45 385.8 18.85 385.8 19.25 385.95 19.6 386.1 19.95 386.35 20.2 386.6 20.45 386.95 20.6 387.3 20.75 387.7 20.75 388.1 20.75 388.45 20.6 388.8 20.45 389.05 20.2 389.35 19.95 389.5 19.6 389.65 19.25 389.65 18.85 389.65 18.45 389.5 18.1
M 407.7 24.3
Q 407.95 24.15 408.3 24.15 409.15 24.15 409.15 25.35 409.15 25.95 409 26.75 408.8 27.55 408.65 28.4 408.45 29.25 408.25 30.05 408.1 30.85 408.1 31.5 408.1 32 408.25 32.5 408.4 32.95 408.7 33.35 409.05 33.75 409.55 33.95 410.1 34.2 410.9 34.2 411.4 34.2 411.95 34.05 412.55 33.9 413.15 33.45 413.7 33 414.3 32.1 414.85 31.25 415.4 29.75
L 414.35 29.75
Q 414.2 30.2 414 30.6 413.8 31 413.55 31.3 413.3 31.55 413.05 31.7 412.75 31.85 412.35 31.85 411.8 31.85 411.6 31.6 411.4 31.3 411.4 30.85 411.4 30.5 411.5 30.1 411.55 29.6 411.7 29.1 411.8 28.55 412 28 412.1 27.4 412.25 26.85 412.4 26.25 412.45 25.7 412.55 25.15 412.55 24.65 412.55 23.95 412.35 23.45 412.15 22.9 411.8 22.6 411.45 22.25 410.95 22.1 410.45 21.95 409.9 21.95 409.6 21.95 409.3 22 408.95 22.05 408.6 22.2 408.25 22.35 407.85 22.6 407.45 22.85 407.1 23.3
L 407.35 22.05 403.9 22.05 402.25 29.75 402.25 29.75
Q 402 30.55 401.75 31.1 401.4 31.65 401.05 32.05 400.7 32.45 400.25 32.75 399.8 33 399.25 33.2
L 401.6 22.05 398.15 22.05 397.9 23.3 397.9 23.15
Q 397.9 22.65 397.45 22.3 397 21.95 395.95 21.95 394.9 21.95 394.05 22.35 393.2 22.7 392.5 23.4 391.8 24.05 391.3 24.9 390.8 25.75 390.45 26.7 390.1 27.65 389.95 28.6 389.8 29.5 389.8 30.35 389.8 30.4232421875 389.8 30.5 389.776171875 30.5478515625 389.75 30.6 389.5 31 389.25 31.25 388.95 31.55 388.65 31.7 388.3 31.85 387.95 31.85 387.45 31.85 387.2 31.7 386.95 31.5 386.95 31 386.95 30.8 387 30.6 387 30.4 387.05 30.2
L 388.8 22.05 385.35 22.05 383.7 29.75
Q 383.35 30.05 382.95 30.35 382.5 30.65 382 30.95 382.05 30.75 382.05 30.55 382.1 30.3 382.1 30.05 382.1 29.65 382.05 29.3 382.05 28.9 382 28.45 381.95 28 381.9 27.4 381.85 26.85 381.8 26 381.75 25.15 381.7 24 381.65 22.85 381.55 21.3
L 378 21.8
Q 377.45 23.55 376.75 25.35 376.05 27.1 375.05 28.9 374.8 29 374.6 29.2 374.35 29.4 374.2 29.7 374 30 373.9 30.35 373.881640625 30.414453125 373.85 30.45 373.7583984375 30.5916015625 373.65 30.7 373.2 31.15 372.7 31.45 372.2 31.8 371.6 32 371.05 32.2 370.3 32.2 369.9 32.2 369.55 32.1 369.25 32 369.05 31.8 368.8 31.55 368.7 31.15 368.6 30.75 368.6 30.15 368.6 29.95 368.6 29.7 368.6 29.45 368.65 29.2 369.7 29.15 370.7 28.7 371.7 28.3 372.5 27.65 373.25 26.95 373.7 26.1 374.15 25.2 374.15 24.15 374.15 23.7 374.05 23.3 373.95 22.85 373.65 22.55 373.35 22.25 372.85 22.05 372.3 21.85 371.5 21.85 370.3 21.85 369.3 22.3 368.35 22.7 367.65 23.45 366.95 24.15 366.45 25.05 365.9 26 365.6 26.95 365.3 27.9 365.15 28.8 365.05 29.7 365.05 30.4 365.05 30.5013671875 365.05 30.6 364.9 31 364.65 31.25 364.4 31.55 364.1 31.7 363.8 31.85 363.45 31.85 362.95 31.85 362.7 31.7 362.45 31.5 362.45 31 362.45 30.8 362.5 30.6 362.5 30.4 362.55 30.2
L 365.35 17.25 361.8 17.75 360.6 23.25 360.6 23.15
Q 360.6 22.65 360.15 22.3 359.7 21.95 358.65 21.95 357.6 21.95 356.75 22.35 355.9 22.7 355.2 23.4 354.5 24.05 354 24.9 353.5 25.75 353.15 26.7 352.8 27.65 352.65 28.6 352.5 29.5 352.5 30.35 352.5 31.4 352.75 32.15 353 32.9 353.45 33.35 353.9 33.8 354.5 34 355.05 34.2 355.7 34.2 356.3 34.2 356.85 34 357.4 33.8 357.85 33.5 358.25 33.2 358.6 32.8 358.95 32.4 359.25 32 359.35 33 360 33.55 360.6 34.05 361.6 34.05 361.9 34.05 362.3 34 362.7 33.95 363.1 33.8 363.5 33.65 363.95 33.35 364.4 33.1 364.85 32.6 365.0603515625 32.3634765625 365.25 32.05 365.284765625 32.104296875 365.3 32.15 365.55 32.85 366.05 33.3 366.55 33.75 367.25 34 367.95 34.2 368.8 34.2 369.95 34.2 370.95 33.8 371.95 33.45 372.75 32.8 373.3708984375 32.36171875 373.85 31.8 373.9302734375 32.008203125 374 32.2 374.2 32.75 374.6 33.2 375.05 33.65 375.7 33.9 376.4 34.2 377.3 34.2 377.75 34.2 378.25 34.1 378.75 34.05 379.25 33.85 379.75 33.7 380.2 33.45 380.7 33.15 381.05 32.75 381.9 32.25 382.85 31.55 383.183203125 31.3044921875 383.5 31 383.5 31.1650390625 383.5 31.3 383.5 32.1 383.7 32.6 383.9 33.15 384.25 33.5 384.6 33.85 385.05 34.05 385.55 34.2 386.1 34.2 386.4 34.2 386.8 34.15 387.2 34.05 387.65 33.9 388.1 33.75 388.6 33.45 389.05 33.15 389.5 32.65 389.7607421875 32.3603515625 390 32 390.026171875 32.0783203125 390.05 32.15 390.3 32.9 390.75 33.35 391.2 33.8 391.8 34 392.35 34.2 393 34.2 393.9 34.2 394.65 33.8 395.35 33.45 395.85 32.9
L 395.55 34.15
Q 394.9 34.35 394.2 34.65 393.5 34.95 392.95 35.4 392.35 35.8 392 36.4 391.65 36.95 391.65 37.7 391.65 38.3 391.9 38.75 392.1 39.2 392.45 39.5 392.8 39.75 393.3 39.9 393.8 40.05 394.35 40.05 394.95 40.05 395.6 39.9 396.25 39.75 396.85 39.3 397.45 38.85 397.95 38.05 398.4 37.25 398.65 35.95
L 399.05 34.25
Q 399.6 34.1 400.2 33.85 400.8 33.55 401.35 33.05 401.48828125 32.9244140625 401.6 32.75
L 401.35 34.05 404.8 34.05 406.4 26.35
Q 406.55 25.9 406.75 25.5 406.95 25.1 407.15 24.8 407.4 24.5 407.7 24.3
M 394.9 24.65
Q 395.3 24.1 395.75 23.75 396.2 23.4 396.7 23.4 397 23.4 397.2 23.55 397.35 23.6 397.5 23.75 397.6 23.9 397.65 24.05 397.7 24.2 397.7 24.3
L 396.45 30
Q 396.35 30.45 396.1 30.8 395.9 31.15 395.65 31.4 395.35 31.6 395.05 31.75 394.8 31.85 394.55 31.85 394.4 31.85 394.15 31.85 393.95 31.8 393.8 31.6 393.6 31.45 393.45 31.05 393.35 30.7 393.35 30 393.35 29.45 393.45 28.75 393.55 28 393.75 27.3 393.95 26.55 394.25 25.85 394.55 25.15 394.9 24.65
M 370 24.7
Q 370.4 24 370.8 23.55 371.25 23.1 371.7 23.1 372.05 23.1 372.2 23.35 372.3 23.65 372.3 24.1 372.3 24.85 372.05 25.55 371.75 26.25 371.25 26.8 370.8 27.3 370.15 27.65 369.5 28 368.85 28.05 369 27.15 369.3 26.3 369.6 25.4 370 24.7
M 378.3 26
Q 378.35 26.7 378.4 27.2 378.45 27.75 378.5 28.15 378.5 28.55 378.55 28.85 378.55 29.2 378.6 29.5 378.6 29.75 378.6 30.05 378.6 30.7 378.45 31.1 378.25 31.55 377.95 31.8 377.65 32.05 377.3 32.2 376.9 32.3 376.5 32.3 375.7 32.3 375.4 31.9 375.05 31.45 375.05 30.6 375.15 30.8 375.3 30.85 375.5 30.95 375.7 30.95 375.95 30.95 376.15 30.85 376.35 30.75 376.45 30.55 376.6 30.4 376.7 30.2 376.75 29.95 376.75 29.75 376.75 29.45 376.6 29.25 376.45 29.05 376.2 28.9 376.8 27.75 377.3 26.65 377.8 25.55 378.15 24.4 378.2 25.3 378.3 26
M 395.35 35.35
L 395.2 36.05
Q 394.95 37.15 394.55 37.65 394.15 38.2 393.8 38.2 393.6 38.2 393.45 38.1 393.3 38.05 393.2 37.9 393.1 37.8 393.05 37.65 393 37.5 393 37.4 393 37.05 393.2 36.75 393.35 36.45 393.7 36.2 394 35.95 394.45 35.75 394.85 35.55 395.35 35.35
M 357.6 24.65
Q 358 24.1 358.45 23.75 358.9 23.4 359.4 23.4 359.7 23.4 359.85 23.5 360.05 23.6 360.15 23.75 360.25 23.85 360.3 24 360.35 24.15 360.4 24.25
L 359.2 29.75 359.2 29.9
Q 359.1 30.4 358.85 30.75 358.65 31.15 358.35 31.4 358.1 31.6 357.8 31.75 357.5 31.85 357.25 31.85 357.1 31.85 356.85 31.85 356.65 31.8 356.5 31.6 356.3 31.45 356.15 31.05 356.05 30.7 356.05 30 356.05 29.45 356.15 28.75 356.25 28 356.45 27.3 356.65 26.55 356.95 25.85 357.25 25.15 357.6 24.65
M 450.05 21.95
Q 449 21.95 448.15 22.35 447.3 22.7 446.6 23.4 445.9 24.05 445.4 24.9 444.9 25.75 444.55 26.7 444.2 27.65 444.05 28.6 443.9 29.5 443.9 30.35 443.9 30.4232421875 443.9 30.5 443.876171875 30.5478515625 443.85 30.6 443.65 31 443.4 31.3 443.15 31.55 442.9 31.7 442.6 31.85 442.2 31.85 441.65 31.85 441.45 31.6 441.25 31.3 441.25 30.85 441.25 30.5 441.35 30.1 441.4 29.6 441.55 29.1 441.65 28.55 441.85 28 441.95 27.4 442.1 26.85 442.25 26.25 442.3 25.7 442.4 25.15 442.4 24.65 442.4 23.95 442.2 23.45 442 22.9 441.65 22.6 441.3 22.25 440.8 22.1 440.3 21.95 439.75 21.95 439.45 21.95 439.15 22 438.8 22.05 438.45 22.2 438.1 22.35 437.7 22.6 437.3 22.85 436.95 23.3
L 437.2 22.05 433.75 22.05 432 30.25
Q 431.938671875 30.4505859375 431.85 30.65 431.65 31.05 431.4 31.35 431.2 31.65 430.9 31.85 430.6 32 430.25 32 429.25 32 429.25 31 429.25 30.8 429.25 30.6 429.3 30.4 429.35 30.2
L 431.05 22.05 427.6 22.05 427.35 23.35 427.35 23.15
Q 427.35 22.65 426.9 22.3 426.45 21.95 425.4 21.95 424.35 21.95 423.5 22.35 422.65 22.7 421.95 23.4 421.25 24.05 420.75 24.9 420.25 25.75 419.9 26.7 419.55 27.65 419.4 28.6 419.25 29.5 419.25 30.35 419.25 31.4 419.5 32.15 419.75 32.9 420.2 33.35 420.65 33.8 421.25 34 421.8 34.2 422.45 34.2 423.1 34.2 423.6 34 424.15 33.8 424.6 33.5 425 33.2 425.35 32.8 425.7 32.4 426 32 426.15 33.1 426.75 33.65 427.35 34.2 428.35 34.2 428.7 34.2 429.05 34.15 429.45 34.05 429.85 33.9 430.3 33.75 430.75 33.45 431.121875 33.2021484375 431.45 32.8
L 431.2 34.05 434.65 34.05 436.25 26.35
Q 436.4 25.9 436.6 25.5 436.8 25.1 437 24.8 437.25 24.5 437.55 24.3 437.8 24.15 438.15 24.15 439 24.15 439 25.35 439 25.95 438.85 26.75 438.65 27.55 438.5 28.4 438.3 29.25 438.1 30.05 437.95 30.85 437.95 31.5 437.95 32 438.1 32.5 438.25 32.95 438.55 33.35 438.9 33.75 439.4 33.95 439.95 34.2 440.75 34.2 441.25 34.2 441.8 34.05 442.4 33.9 443 33.45 443.544921875 33.0041015625 444.15 32.1
L 444.15 32.15
Q 444.4 32.9 444.85 33.35 445.3 33.8 445.9 34 446.45 34.2 447.1 34.2 447.7 34.2 448.25 34 448.8 33.8 449.25 33.5 449.65 33.2 450 32.8 450.35 32.4 450.65 32 450.75 33 451.4 33.55 452 34.05 453 34.05 453.3 34.05 453.7 34 454.1 33.95 454.5 33.8 454.9 33.65 455.35 33.35 455.8 33.1 456.25 32.6 456.65 32.15 457.05 31.45 457.45 30.7 457.8 29.75
L 456.8 29.75
Q 456.65 30.2 456.45 30.6 456.3 31 456.05 31.25 455.8 31.55 455.5 31.7 455.2 31.85 454.85 31.85 454.35 31.85 454.1 31.7 453.85 31.5 453.85 31 453.85 30.8 453.9 30.6 453.9 30.4 453.95 30.2
L 456.75 17.25 453.2 17.75 452 23.25 452 23.15
Q 452 22.65 451.55 22.3 451.1 21.95 450.05 21.95
M 449 24.65
Q 449.4 24.1 449.85 23.75 450.3 23.4 450.8 23.4 451.1 23.4 451.25 23.5 451.45 23.6 451.55 23.75 451.65 23.85 451.7 24 451.75 24.15 451.8 24.25
L 450.6 29.75 450.6 29.9
Q 450.5 30.4 450.25 30.75 450.05 31.15 449.75 31.4 449.5 31.6 449.2 31.75 448.9 31.85 448.65 31.85 448.5 31.85 448.25 31.85 448.05 31.8 447.9 31.6 447.7 31.45 447.55 31.05 447.45 30.7 447.45 30 447.45 29.45 447.55 28.75 447.65 28 447.85 27.3 448.05 26.55 448.35 25.85 448.65 25.15 449 24.65
M 427.1 24.1
Q 427.15 24.25 427.15 24.35
L 426 29.75
Q 425.85 30.3 425.65 30.7 425.4 31.05 425.15 31.35 424.85 31.6 424.55 31.75 424.25 31.85 424 31.85 423.85 31.85 423.6 31.85 423.4 31.8 423.25 31.6 423.05 31.45 422.9 31.05 422.8 30.7 422.8 30 422.8 29.45 422.9 28.75 423 28 423.2 27.3 423.4 26.55 423.7 25.85 424 25.15 424.35 24.65 424.75 24.1 425.2 23.75 425.65 23.4 426.15 23.4 426.45 23.4 426.65 23.55 426.8 23.6 426.95 23.75 427.05 23.9 427.1 24.1
M 522.95 18.1
Q 522.8 17.75 522.5 17.5 522.25 17.25 521.9 17.1 521.55 16.95 521.15 16.95 520.75 16.95 520.4 17.1 520.05 17.25 519.8 17.5 519.55 17.75 519.4 18.1 519.25 18.45 519.25 18.85 519.25 19.25 519.4 19.6 519.55 19.95 519.8 20.2 520.05 20.45 520.4 20.6 520.75 20.75 521.15 20.75 521.55 20.75 521.9 20.6 522.25 20.45 522.5 20.2 522.8 19.95 522.95 19.6 523.1 19.25 523.1 18.85 523.1 18.45 522.95 18.1
M 507.75 24.15
Q 507.75 23.7 507.65 23.3 507.55 22.85 507.25 22.55 506.95 22.25 506.45 22.05 505.9 21.85 505.1 21.85 503.9 21.85 502.9 22.3 501.95 22.7 501.25 23.45 500.55 24.15 500.05 25.05 499.5 26 499.2 26.95 498.9 27.9 498.75 28.8 498.65 29.7 498.65 30.4 498.65 30.4484375 498.65 30.5 498.62578125 30.5484375 498.6 30.6 498.35 31 498.1 31.25 497.8 31.55 497.5 31.7 497.15 31.85 496.8 31.85 496.3 31.85 496.05 31.7 495.8 31.5 495.8 31 495.8 30.8 495.85 30.6 495.85 30.4 495.9 30.2
L 497.45 23 498.9 23 499.1 22.05 497.65 22.05 498.45 18.25 494.9 18.75 494.2 22.05 493.4 22.05 493.2 23 494 23 492.55 29.75
Q 492.488671875 30.02578125 492.45 30.25 492.381640625 30.46640625 492.3 30.65 492.1 31.05 491.85 31.35 491.65 31.65 491.35 31.85 491.05 32 490.7 32 489.7 32 489.7 31 489.7 30.8 489.7 30.6 489.75 30.4 489.8 30.2
L 491.5 22.05 488.05 22.05 487.8 23.35 487.8 23.15
Q 487.8 22.65 487.35 22.3 486.9 21.95 485.85 21.95 484.8 21.95 483.95 22.35 483.1 22.7 482.4 23.4 481.7 24.05 481.2 24.9 480.7 25.75 480.35 26.7 480 27.65 479.85 28.6 479.7 29.5 479.7 30.35
L 479.7 30.4
Q 479.6501953125 30.499609375 479.6 30.6 479.4 31 479.2 31.3 478.95 31.55 478.65 31.7 478.35 31.85 478 31.85 477.45 31.85 477.25 31.6 477 31.3 477 30.85 477 30.5 477.1 30.1 477.2 29.6 477.35 29.1 477.45 28.55 477.6 28 477.75 27.4 477.9 26.85 478 26.25 478.1 25.7 478.15 25.15 478.15 24.65 478.15 23.95 477.95 23.45 477.75 22.9 477.4 22.6 477.05 22.25 476.6 22.1 476.1 21.95 475.5 21.95 475.2 21.95 474.8 22.05 474.4 22.1 473.95 22.3 473.5 22.5 473.05 22.95 472.6 23.35 472.15 24 472.1 23.45 471.85 23.05 471.65 22.65 471.3 22.4 471 22.15 470.6 22.05 470.2 21.95 469.7 21.95 469.4 21.95 469.05 22 468.7 22.05 468.3 22.2 467.95 22.35 467.55 22.6 467.15 22.85 466.8 23.3
L 467.05 22.05 463.6 22.05 461.05 34.05 464.5 34.05 466.1 26.35
Q 466.25 25.9 466.45 25.5 466.65 25.05 466.9 24.75 467.1 24.45 467.4 24.3 467.7 24.1 468.05 24.1 468.3 24.1 468.4 24.2 468.55 24.3 468.65 24.45 468.7 24.6 468.75 24.75 468.8 24.95 468.8 25.15 468.8 25.5 468.7 25.75
L 466.95 34.05 470.4 34.05 472.05 26.35
Q 472.2 25.9 472.4 25.5 472.55 25.1 472.8 24.8 473.05 24.5 473.3 24.3 473.6 24.15 473.95 24.15 474.8 24.15 474.8 25.35 474.8 25.95 474.65 26.75 474.45 27.55 474.25 28.4 474.05 29.25 473.9 30.05 473.7 30.85 473.7 31.5 473.7 32 473.85 32.5 474 32.95 474.35 33.35 474.65 33.75 475.2 33.95 475.75 34.2 476.55 34.2 477 34.2 477.6 34.05 478.15 33.9 478.75 33.45 479.34453125 33.0041015625 479.95 32.1
L 479.95 32.15
Q 480.2 32.9 480.65 33.35 481.1 33.8 481.7 34 482.25 34.2 482.9 34.2 483.55 34.2 484.05 34 484.6 33.8 485.05 33.5 485.45 33.2 485.8 32.8 486.15 32.4 486.45 32 486.6 33.1 487.2 33.65 487.8 34.2 488.8 34.2 489.15 34.2 489.5 34.15 489.9 34.05 490.3 33.9 490.75 33.75 491.2 33.45 491.65 33.15 492.05 32.65 492.24375 32.434765625 492.4 32.15 492.475 32.4123046875 492.55 32.6 492.75 33.15 493.1 33.5 493.45 33.85 493.9 34.05 494.4 34.2 494.95 34.2 495.25 34.2 495.65 34.15 496.05 34.05 496.5 33.9 496.95 33.75 497.45 33.45 497.9 33.15 498.35 32.65 498.610546875 32.3603515625 498.85 32 498.8759765625 32.078125 498.9 32.15 499.15 32.85 499.65 33.3 500.15 33.75 500.85 34 501.55 34.2 502.4 34.2 503.55 34.2 504.55 33.8 505.55 33.45 506.35 32.8 507.173828125 32.2185546875 507.8 31.45
L 507.25 34.05 510.7 34.05 512.6 24.95
Q 513.05 24.5 513.45 24.3 513.8 24 514.35 24 514.55 24 514.6 24.15 514.7 24.25 514.75 24.45 514.8 24.6 514.85 24.8 514.85 25 514.95 25.2 515.05 25.35 515.25 25.5 515.4 25.6 515.75 25.6 516.2 25.6 516.5 25.45 516.85 25.3 517.05 25.05 517.3 24.8 517.4 24.5 517.5 24.15 517.5 23.85 517.5 23.5 517.4 23.2 517.3 22.85 517.05 22.6 516.85 22.35 516.55 22.2 516.25 22.05 515.85 22.05 515.4 22.05 515 22.2 514.6 22.3 514.25 22.5 513.9 22.7 513.6 23 513.25 23.25 512.95 23.55
L 513.25 22.05 509.8 22.05 508.15 29.75 508.15 29.75
Q 507.7 30.25 507.25 30.7 506.8 31.15 506.3 31.45 505.8 31.8 505.2 32 504.65 32.2 503.9 32.2 503.5 32.2 503.15 32.1 502.85 32 502.65 31.8 502.4 31.55 502.3 31.15 502.2 30.75 502.2 30.15 502.2 29.95 502.2 29.7 502.2 29.45 502.25 29.2 503.3 29.15 504.3 28.7 505.3 28.3 506.1 27.65 506.85 26.95 507.3 26.1 507.75 25.2 507.75 24.15
M 486.6 23.4
Q 486.9 23.4 487.1 23.55 487.25 23.6 487.4 23.75 487.5 23.9 487.55 24.1 487.6 24.25 487.6 24.35
L 486.45 29.75
Q 486.3 30.3 486.1 30.7 485.85 31.05 485.6 31.35 485.3 31.6 485 31.75 484.7 31.85 484.45 31.85 484.3 31.85 484.05 31.85 483.85 31.8 483.7 31.6 483.5 31.45 483.35 31.05 483.25 30.7 483.25 30 483.25 29.45 483.35 28.75 483.45 28 483.65 27.3 483.85 26.55 484.15 25.85 484.45 25.15 484.8 24.65 485.2 24.1 485.65 23.75 486.1 23.4 486.6 23.4
M 503.6 24.7
Q 504 24 504.4 23.55 504.85 23.1 505.3 23.1 505.65 23.1 505.8 23.35 505.9 23.65 505.9 24.1 505.9 24.85 505.65 25.55 505.35 26.25 504.85 26.8 504.4 27.3 503.75 27.65 503.1 28 502.45 28.05 502.6 27.15 502.9 26.3 503.2 25.4 503.6 24.7
M 549.65 24
Q 549.6 22.85 549.5 21.3
L 545.95 21.8
Q 545.4 23.55 544.7 25.35 544 27.1 543 28.9 542.75 29 542.55 29.2 542.3 29.4 542.15 29.7 541.95 30 541.85 30.35 541.75 30.7 541.75 31.1
L 541.75 31.15
Q 541.7001953125 31.1998046875 541.65 31.25 541.35 31.55 541.05 31.7 540.7 31.85 540.35 31.85 539.85 31.85 539.6 31.7 539.35 31.5 539.35 31 539.35 30.8 539.4 30.6 539.4 30.4 539.45 30.2
L 542.2 17.25 538.65 17.75 536.1 29.75
Q 536.038671875 30.02578125 536 30.25 535.931640625 30.46640625 535.85 30.65 535.65 31.05 535.4 31.35 535.2 31.65 534.9 31.85 534.6 32 534.25 32 533.25 32 533.25 31 533.25 30.8 533.25 30.6 533.3 30.4 533.35 30.2
L 535.05 22.05 531.6 22.05 531.35 23.35 531.35 23.15
Q 531.35 22.65 530.9 22.3 530.45 21.95 529.4 21.95 528.35 21.95 527.5 22.35 526.65 22.7 525.95 23.4 525.25 24.05 524.75 24.9 524.25 25.75 523.9 26.7 523.55 27.65 523.4 28.6 523.25 29.5 523.25 30.35 523.25 30.4232421875 523.25 30.5 523.226171875 30.5478515625 523.2 30.6 522.95 31 522.7 31.25 522.4 31.55 522.1 31.7 521.75 31.85 521.4 31.85 520.9 31.85 520.65 31.7 520.4 31.5 520.4 31 520.4 30.8 520.45 30.6 520.45 30.4 520.5 30.2
L 522.25 22.05 518.8 22.05 517.15 29.75
Q 517.05 30.2 517 30.6 516.95 31 516.95 31.3 516.95 32.1 517.15 32.6 517.35 33.15 517.7 33.5 518.05 33.85 518.5 34.05 519 34.2 519.55 34.2 519.85 34.2 520.25 34.15 520.65 34.05 521.1 33.9 521.55 33.75 522.05 33.45 522.5 33.15 522.95 32.65 523.2107421875 32.3603515625 523.45 32 523.476171875 32.0783203125 523.5 32.15 523.75 32.9 524.2 33.35 524.65 33.8 525.25 34 525.8 34.2 526.45 34.2 527.1 34.2 527.6 34 528.15 33.8 528.6 33.5 529 33.2 529.35 32.8 529.7 32.4 530 32 530.15 33.1 530.75 33.65 531.35 34.2 532.35 34.2 532.7 34.2 533.05 34.15 533.45 34.05 533.85 33.9 534.3 33.75 534.75 33.45 535.2 33.15 535.6 32.65 535.79375 32.434765625 535.95 32.15 536.025 32.4123046875 536.1 32.6 536.3 33.15 536.65 33.5 537 33.85 537.45 34.05 537.95 34.2 538.5 34.2 538.8 34.2 539.2 34.15 539.6 34.05 540.05 33.9 540.5 33.75 541 33.45 541.45 33.15 541.9 32.65 541.980859375 32.56015625 542.05 32.45 542.248046875 32.8603515625 542.55 33.2 543 33.65 543.65 33.9 544.35 34.2 545.25 34.2 545.7 34.2 546.2 34.1 546.7 34.05 547.2 33.85 547.7 33.7 548.15 33.45 548.65 33.15 549 32.75 549.85 32.25 550.8 31.55 551.75 30.85 552.65 29.75
L 551.65 29.75
Q 551.3 30.05 550.9 30.35 550.45 30.65 549.95 30.95 550 30.75 550 30.55 550.05 30.3 550.05 30.05 550.05 29.65 550 29.3 550 28.9 549.95 28.45 549.9 28 549.85 27.4 549.8 26.85 549.75 26 549.7 25.15 549.65 24
M 530.65 23.55
Q 530.8 23.6 530.95 23.75 531.05 23.9 531.1 24.1 531.15 24.25 531.15 24.35
L 530 29.75
Q 529.85 30.3 529.65 30.7 529.4 31.05 529.15 31.35 528.85 31.6 528.55 31.75 528.25 31.85 528 31.85 527.85 31.85 527.6 31.85 527.4 31.8 527.25 31.6 527.05 31.45 526.9 31.05 526.8 30.7 526.8 30 526.8 29.45 526.9 28.75 527 28 527.2 27.3 527.4 26.55 527.7 25.85 528 25.15 528.35 24.65 528.75 24.1 529.2 23.75 529.65 23.4 530.15 23.4 530.45 23.4 530.65 23.55
M 546.25 26
Q 546.3 26.7 546.35 27.2 546.4 27.75 546.45 28.15 546.45 28.55 546.5 28.85 546.5 29.2 546.55 29.5 546.55 29.75 546.55 30.05 546.55 30.7 546.4 31.1 546.2 31.55 545.9 31.8 545.6 32.05 545.25 32.2 544.85 32.3 544.45 32.3 543.65 32.3 543.35 31.9 543.0744140625 31.545703125 543 30.95 543.059375 30.8484375 543.1 30.75 543.174609375 30.8248046875 543.25 30.85 543.45 30.95 543.65 30.95 543.9 30.95 544.1 30.85 544.3 30.75 544.4 30.55 544.55 30.4 544.65 30.2 544.7 29.95 544.7 29.75 544.7 29.45 544.55 29.25 544.4 29.05 544.15 28.9 544.75 27.75 545.25 26.65 545.75 25.55 546.1 24.4 546.15 25.3 546.25 26 Z"/>
</g>

<path id="Layer3_0_1_STROKES" stroke="#CCCCCC" stroke-width="3" stroke-linejoin="round" stroke-linecap="round" fill="none" d="
M 67.75 78.05
L 660.6 78.05"/>

<path id="Layer2_0_1_STROKES" stroke="#CCCCCC" stroke-width="3" stroke-linejoin="round" stroke-linecap="round" fill="none" d="
M 641.25 76.7
Q 641.35 72.55 644.35 69.55 647.45 66.45 651.8 66.45 656.15 66.45 659.25 69.55 662.35 72.65 662.35 77 662.35 81.35 659.25 84.45 656.15 87.55 651.8 87.55 647.45 87.55 644.35 84.45 641.25 81.35 641.25 77 641.25 76.85 641.25 76.7 Z
M 555.35 76.7
Q 555.45 72.55 558.45 69.55 561.55 66.45 565.9 66.45 570.25 66.45 573.35 69.55 576.45 72.65 576.45 77 576.45 81.35 573.35 84.45 570.25 87.55 565.9 87.55 561.55 87.55 558.45 84.45 555.35 81.35 555.35 77 555.35 76.85 555.35 76.7 Z
M 458.35 76.7
Q 458.45 72.55 461.45 69.55 464.55 66.45 468.9 66.45 473.25 66.45 476.35 69.55 479.35 72.55 479.45 76.7 479.45 76.85 479.45 77 479.45 81.35 476.35 84.45 473.25 87.55 468.9 87.55 464.55 87.55 461.45 84.45 458.35 81.35 458.35 77 458.35 76.85 458.35 76.7 Z
M 349.6 76.7
Q 349.7 72.55 352.7 69.55 355.8 66.45 360.15 66.45 364.5 66.45 367.6 69.55 370.6 72.55 370.7 76.7 370.7 76.85 370.7 77 370.7 81.35 367.6 84.45 364.5 87.55 360.15 87.55 355.8 87.55 352.7 84.45 349.6 81.35 349.6 77 349.6 76.85 349.6 76.7 Z
M 260 76.7
Q 260 76.85 260 77 260 81.35 256.9 84.45 253.8 87.55 249.45 87.55 245.1 87.55 242 84.45 238.9 81.35 238.9 77 238.9 76.85 238.9 76.7 239 72.55 242 69.55 245.1 66.45 249.45 66.45 253.8 66.45 256.9 69.55 259.9 72.55 260 76.7 Z
M 162 76.7
Q 162 76.85 162 77 162 81.35 158.9 84.45 155.8 87.55 151.45 87.55 147.1 87.55 144 84.45 140.9 81.35 140.9 77 140.9 76.85 140.9 76.7 141 72.55 144 69.55 147.1 66.45 151.45 66.45 155.8 66.45 158.9 69.55 161.9 72.55 162 76.7 Z
M 67.85 76.7
Q 67.85 76.85 67.85 77 67.85 81.35 64.75 84.45 61.65 87.55 57.3 87.55 52.95 87.55 49.85 84.45 46.75 81.35 46.75 77 46.75 72.65 49.85 69.55 52.95 66.45 57.3 66.45 61.65 66.45 64.75 69.55 67.75 72.55 67.85 76.7 Z"/>
</defs>

<g transform="matrix( 1, 0, 0, 1, 0,0) ">
<use xlink:href="#Layer3_0_1_STROKES"/>
</g>

<g transform="matrix( 1, 0, 0, 1, 0,0) ">
<use xlink:href="#Layer2_0_FILL"/>

<use xlink:href="#Layer2_0_1_STROKES"/>
</g>

<g transform="matrix( 1, 0, 0, 1, 0,0) ">
<use xlink:href="#Layer1_0_FILL"/>
</g>

<g transform="matrix( 1, 0, 0, 1, 0,0) ">
<use xlink:href="#Layer0_0_FILL"/>
</g>
</svg>
